<svg xmlns="http://www.w3.org/2000/svg" viewBox="0 0 750 500"><g id="freepik--background-simple--inject-1395"><path d="M646.85,118.76q-3.33-4.14-7-8.12c-32.22-35.26-85.86-59.4-138-70.33a391.57,391.57,0,0,0-69.69-8C278.69,28.21,222.3,122.49,172.83,146.79S47.46,212.62,57,299.84c7.23,66.32,57.88,129.73,150.39,158.58a325.42,325.42,0,0,0,32.1,8.25,403.91,403.91,0,0,0,67.8,7.77c70,2.32,126.74-10.24,182.29-41.86,12.91-7.35,25.75-15.64,42.51-16.55,12.18-.66,23.73,2.6,11,11.37-15,10.3,2.31,30.57,40.29,16.49C646.8,420.37,672.9,369.63,685.2,318,700.29,254.71,693,176,646.85,118.76Z" style="fill:#DF7356"></path><path d="M646.85,118.76q-3.33-4.14-7-8.12c-32.22-35.26-85.86-59.4-138-70.33a391.57,391.57,0,0,0-69.69-8C278.69,28.21,222.3,122.49,172.83,146.79S47.46,212.62,57,299.84c7.23,66.32,57.88,129.73,150.39,158.58a325.42,325.42,0,0,0,32.1,8.25,403.91,403.91,0,0,0,67.8,7.77c70,2.32,126.74-10.24,182.29-41.86,12.91-7.35,25.75-15.64,42.51-16.55,12.18-.66,23.73,2.6,11,11.37-15,10.3,2.31,30.57,40.29,16.49C646.8,420.37,672.9,369.63,685.2,318,700.29,254.71,693,176,646.85,118.76Z" style="fill:#fff;opacity:0.7000000000000001"></path></g><g id="freepik--Lemons--inject-1395"><g style="opacity:0.2"><path d="M176.62,137.46a38,38,0,1,1,38-38A38,38,0,0,1,176.62,137.46Zm0-75a37,37,0,1,0,37,37A37,37,0,0,0,176.62,62.51Z"></path><path d="M177.06,97.66c-1.36,0-2.54-1.71-3.5-5.09L166.32,70a3.7,3.7,0,0,1,.16-3.1A3.76,3.76,0,0,1,169,64.93a33.14,33.14,0,0,1,16.08,0A3.74,3.74,0,0,1,187.72,70l-7.23,22.6c-.91,3.35-2.06,5.06-3.42,5.07Zm-.36-32.73a36,36,0,0,0-7.49,1,2.73,2.73,0,0,0-1.84,1.4,2.76,2.76,0,0,0-.11,2.3l7.26,22.67c.92,3.23,1.91,4.38,2.54,4.38h0c.63,0,1.6-1.15,2.48-4.36l7.24-22.65a2.73,2.73,0,0,0-1.93-3.74,32.08,32.08,0,0,0-7.8-1h-.35Z"></path><path d="M173.39,98.9a12.14,12.14,0,0,1-4.34-1.14l-22.19-8.44a3.72,3.72,0,0,1-2.33-2.06,3.77,3.77,0,0,1,.06-3.15,33.1,33.1,0,0,1,10-12.58,3.74,3.74,0,0,1,5.61,1.08l13.16,19.74c2.05,2.81,2.67,4.78,1.83,5.85A2.19,2.19,0,0,1,173.39,98.9ZM157,71.7a2.72,2.72,0,0,0-1.72.61,32.86,32.86,0,0,0-5.62,5.49l0,0a32.93,32.93,0,0,0-4.11,6.7,2.74,2.74,0,0,0,0,2.31,2.71,2.71,0,0,0,1.72,1.52l22.25,8.46c3.11,1.3,4.63,1.24,5,.75s.1-2-1.86-4.66l-13.2-19.79a2.78,2.78,0,0,0-1.88-1.38A3.05,3.05,0,0,0,157,71.7Z"></path><path d="M147.76,117.27a4,4,0,0,1-1-.12,3.75,3.75,0,0,1-2.43-2,33.16,33.16,0,0,1-3.57-15.68,3.74,3.74,0,0,1,4.33-3.71l23.64,2c3.48.14,5.4.89,5.71,2.21s-1.09,2.86-4.18,4.56l-20.44,12.08A3.66,3.66,0,0,1,147.76,117.27ZM144.53,96.7a2.65,2.65,0,0,0-1.77.65,2.69,2.69,0,0,0-1,2.1,32.52,32.52,0,0,0,.79,7.82v0a32.74,32.74,0,0,0,2.68,7.38,2.73,2.73,0,0,0,4,1.07l20.49-12.11c2.95-1.62,3.84-2.85,3.7-3.46s-1.48-1.3-4.8-1.44l-23.7-2A2.59,2.59,0,0,0,144.53,96.7Z"></path><path d="M169.35,134.75a3.53,3.53,0,0,1-.85-.1,34.69,34.69,0,0,1-7.68-2.59,34,34,0,0,1-6.81-4.39,3.72,3.72,0,0,1-.2-5.7l16.32-17.23c2.27-2.62,4.06-3.67,5.29-3.08s1.55,2.64,1,6.1l-3.3,23.52a3.68,3.68,0,0,1-1.49,2.73A3.75,3.75,0,0,1,169.35,134.75Zm5.35-32.25c-.68,0-2,.75-3.83,2.91l-16.36,17.27a2.74,2.74,0,0,0,.11,4.21,33.53,33.53,0,0,0,6.61,4.25l.05,0a33.25,33.25,0,0,0,7.44,2.51,2.73,2.73,0,0,0,3.36-2.5l3.3-23.57c.58-3.32.17-4.78-.39-5A.65.65,0,0,0,174.7,102.5Z"></path><path d="M183.45,135a3.76,3.76,0,0,1-3.73-3.51L176.43,108c-.63-3.42-.34-5.47.88-6.06s3,.43,5.37,3.06L199,122.28a3.7,3.7,0,0,1,1.2,2.86,3.76,3.76,0,0,1-1.43,2.82,33.12,33.12,0,0,1-6.81,4.38,33.77,33.77,0,0,1-7.68,2.6A4.11,4.11,0,0,1,183.45,135Zm-5.4-32.23a.67.67,0,0,0-.3.06c-.56.28-.94,1.74-.33,5l3.3,23.55a2.75,2.75,0,0,0,1.09,2.06,2.71,2.71,0,0,0,2.27.47,32.38,32.38,0,0,0,7.44-2.51l0,0a33.16,33.16,0,0,0,6.6-4.26,2.72,2.72,0,0,0,.15-4.17L182,105.72C180,103.56,178.74,102.81,178.05,102.81Z"></path><path d="M205.5,117.92a3.75,3.75,0,0,1-2.14-.68l-20.43-12.08c-3.06-1.63-4.48-3.14-4.18-4.47s2.23-2.1,5.74-2.28l23.66-2a3.72,3.72,0,0,1,4.3,3.71,33.16,33.16,0,0,1-3.57,15.68,3.74,3.74,0,0,1-2.43,2A3.51,3.51,0,0,1,205.5,117.92Zm3.22-20.58a2.25,2.25,0,0,0-.44,0l-23.72,2c-3.36.18-4.7.9-4.84,1.51s.77,1.82,3.7,3.38L203.9,116.4a2.73,2.73,0,0,0,4.07-1.05,32.7,32.7,0,0,0,2.68-7.39v0a32.32,32.32,0,0,0,.79-7.82,2.71,2.71,0,0,0-1-2.1A2.74,2.74,0,0,0,208.72,97.34Z"></path><path d="M180.42,99.46a2.15,2.15,0,0,1-1.78-.69c-.86-1.06-.26-3,1.79-5.91L193.6,73.1a3.71,3.71,0,0,1,2.53-1.81,3.75,3.75,0,0,1,3.06.76A33.74,33.74,0,0,1,205,77.72a33.22,33.22,0,0,1,4.24,6.9,3.74,3.74,0,0,1-2.3,5.23l-22.18,8.44A11.76,11.76,0,0,1,180.42,99.46Zm16.42-27.24a3.05,3.05,0,0,0-.52,0,2.69,2.69,0,0,0-1.86,1.35l-13.21,19.8c-1.95,2.74-2.23,4.24-1.83,4.72s1.89.54,5-.78L206.6,88.9a2.75,2.75,0,0,0,1.72-3.84,32.93,32.93,0,0,0-4.11-6.7l0,0a32.86,32.86,0,0,0-5.62-5.49A2.72,2.72,0,0,0,196.84,72.22Z"></path></g><g style="opacity:0.2"><path d="M611.15,472.09a38,38,0,1,1,38-38A38,38,0,0,1,611.15,472.09Zm0-74.94a37,37,0,1,0,37,37A37,37,0,0,0,611.15,397.15Z"></path><path d="M611.58,432.29c-1.36,0-2.53-1.71-3.49-5.09l-7.24-22.62a3.73,3.73,0,0,1,2.66-5,33.18,33.18,0,0,1,16.09,0,3.74,3.74,0,0,1,2.65,5.06L615,427.22c-.91,3.35-2.07,5.06-3.43,5.07Zm-.36-32.73a36,36,0,0,0-7.49,1,2.73,2.73,0,0,0-1.94,3.7L609,426.91c.92,3.24,1.92,4.38,2.54,4.38h0c.62,0,1.6-1.15,2.47-4.36l7.25-22.65a2.75,2.75,0,0,0-1.93-3.74,33.41,33.41,0,0,0-7.8-1h-.36Z"></path><path d="M607.92,433.54a12,12,0,0,1-4.34-1.14L581.38,424a3.73,3.73,0,0,1-2.26-5.21,33.1,33.1,0,0,1,10-12.58,3.73,3.73,0,0,1,5.6,1.08L607.91,427c2.06,2.81,2.68,4.78,1.84,5.85A2.22,2.22,0,0,1,607.92,433.54Zm-16.43-27.21a2.74,2.74,0,0,0-1.72.61,33.88,33.88,0,0,0-5.62,5.49l0,0a33.17,33.17,0,0,0-4.1,6.71A2.72,2.72,0,0,0,581.7,423L604,431.47c3.11,1.3,4.62,1.23,5,.74s.1-2-1.87-4.65l-13.19-19.8a2.78,2.78,0,0,0-1.88-1.38A3.17,3.17,0,0,0,591.49,406.33Z"></path><path d="M582.28,451.9a3.87,3.87,0,0,1-.95-.12,3.74,3.74,0,0,1-2.43-2,33,33,0,0,1-3.58-15.68,3.72,3.72,0,0,1,1.31-2.87,3.67,3.67,0,0,1,3-.84l23.64,2c3.47.15,5.4.89,5.71,2.21s-1.09,2.86-4.18,4.56l-20.45,12.09A3.68,3.68,0,0,1,582.28,451.9Zm-3.22-20.57a2.73,2.73,0,0,0-2.74,2.75,33.19,33.19,0,0,0,.79,7.82V442a33.34,33.34,0,0,0,2.68,7.39,2.74,2.74,0,0,0,4,1.07l20.49-12.12c3-1.62,3.85-2.85,3.71-3.46s-1.48-1.3-4.8-1.44l-23.7-2A2.59,2.59,0,0,0,579.06,431.33Z"></path><path d="M603.88,469.38a3.55,3.55,0,0,1-.86-.1,33,33,0,0,1-14.49-7,3.73,3.73,0,0,1-1.42-2.81,3.69,3.69,0,0,1,1.23-2.89l16.31-17.23c2.28-2.62,4.06-3.66,5.29-3.08s1.56,2.64.95,6.11l-3.29,23.52a3.71,3.71,0,0,1-1.49,2.72A3.78,3.78,0,0,1,603.88,469.38Zm5.35-32.25c-.68,0-2,.76-3.84,2.92L589,457.31a2.76,2.76,0,0,0-.92,2.15,2.69,2.69,0,0,0,1,2.06,33.27,33.27,0,0,0,6.61,4.26l0,0a33.76,33.76,0,0,0,7.45,2.51,2.77,2.77,0,0,0,2.26-.47,2.68,2.68,0,0,0,1.09-2l3.31-23.58c.57-3.32.17-4.78-.4-5.05A.61.61,0,0,0,609.23,437.13Z"></path><path d="M618,469.67a3.78,3.78,0,0,1-2.23-.74,3.72,3.72,0,0,1-1.49-2.77L611,442.67c-.63-3.42-.33-5.46.89-6.06s3,.43,5.37,3.06l16.33,17.24a3.74,3.74,0,0,1-.22,5.68,32.85,32.85,0,0,1-14.49,7A4.12,4.12,0,0,1,618,469.67Zm-5.39-32.22a.67.67,0,0,0-.3.06c-.56.27-.94,1.73-.34,5l3.3,23.55a2.74,2.74,0,0,0,3.36,2.53,32.25,32.25,0,0,0,7.45-2.51l0,0a32.85,32.85,0,0,0,6.61-4.25,2.74,2.74,0,0,0,.14-4.18l-16.37-17.28C614.56,438.2,613.26,437.45,612.58,437.45Z"></path><path d="M640,452.55a3.7,3.7,0,0,1-2.14-.68l-20.42-12.08c-3.07-1.63-4.48-3.14-4.19-4.46s2.23-2.11,5.75-2.29l23.66-2a3.69,3.69,0,0,1,3,.84,3.74,3.74,0,0,1,1.31,2.87,33,33,0,0,1-3.58,15.68,3.71,3.71,0,0,1-2.43,2A3.4,3.4,0,0,1,640,452.55ZM643.25,432a2.28,2.28,0,0,0-.45,0l-23.71,2c-3.37.17-4.71.89-4.84,1.5s.76,1.82,3.7,3.38L638.42,451a2.74,2.74,0,0,0,4.08-1,33.34,33.34,0,0,0,2.68-7.39v0a33.19,33.19,0,0,0,.79-7.82,2.79,2.79,0,0,0-1-2.11A2.76,2.76,0,0,0,643.25,432Z"></path><path d="M615,434.09a2.17,2.17,0,0,1-1.79-.69c-.85-1.06-.25-3,1.8-5.91l13.17-19.76a3.69,3.69,0,0,1,2.52-1.81,3.75,3.75,0,0,1,3.06.76,33.17,33.17,0,0,1,10,12.57,3.74,3.74,0,0,1-2.3,5.23l-22.17,8.44A11.81,11.81,0,0,1,615,434.09Zm16.42-27.24a3.17,3.17,0,0,0-.53,0,2.77,2.77,0,0,0-1.86,1.35l-13.2,19.81c-2,2.74-2.23,4.23-1.84,4.72s1.9.53,4.95-.79l22.23-8.46a2.73,2.73,0,0,0,1.72-3.84,33.24,33.24,0,0,0-4.1-6.7l0,0a33.88,33.88,0,0,0-5.62-5.49A2.74,2.74,0,0,0,631.37,406.85Z"></path></g><g style="opacity:0.2"><path d="M378.82,431.91a38,38,0,1,1,38-38A38,38,0,0,1,378.82,431.91Zm0-74.94a37,37,0,1,0,37,37A37,37,0,0,0,378.82,357Z"></path><path d="M379.26,392.12c-1.36,0-2.54-1.71-3.5-5.09l-7.24-22.62a3.73,3.73,0,0,1,2.67-5,32.82,32.82,0,0,1,16.08,0,3.74,3.74,0,0,1,2.65,5.05L382.69,387c-.91,3.36-2.07,5.07-3.43,5.08Zm-.37-32.73a36.38,36.38,0,0,0-7.49,1,2.74,2.74,0,0,0-1.94,3.7l7.25,22.68c.92,3.23,1.92,4.38,2.55,4.38h0c.62,0,1.6-1.15,2.47-4.36L389,364.1a2.73,2.73,0,0,0-1.93-3.74,34.11,34.11,0,0,0-7.8-1h-.36Z"></path><path d="M375.59,393.36a12.14,12.14,0,0,1-4.34-1.14l-22.2-8.45a3.71,3.71,0,0,1-2.32-2,3.75,3.75,0,0,1,.06-3.16,33.22,33.22,0,0,1,4.24-6.9,32.84,32.84,0,0,1,5.79-5.67,3.73,3.73,0,0,1,5.6,1.08l13.17,19.74c2.05,2.8,2.67,4.77,1.83,5.84A2.22,2.22,0,0,1,375.59,393.36Zm-16.42-27.2a2.7,2.7,0,0,0-1.72.61,33.75,33.75,0,0,0-5.63,5.49l0,0a33.81,33.81,0,0,0-4.1,6.7,2.75,2.75,0,0,0,1.68,3.83l22.25,8.46c3.11,1.3,4.62,1.23,5,.74s.1-2-1.86-4.65l-13.2-19.79a2.72,2.72,0,0,0-1.88-1.38A3.15,3.15,0,0,0,359.17,366.16Z"></path><path d="M350,411.73a3.52,3.52,0,0,1-1-.13,3.74,3.74,0,0,1-2.43-2A33,33,0,0,1,343,393.91a3.78,3.78,0,0,1,1.32-2.87,3.72,3.72,0,0,1,3-.84l23.64,2c3.47.14,5.4.89,5.71,2.21s-1.09,2.86-4.18,4.55l-20.44,12.09A3.66,3.66,0,0,1,350,411.73Zm-3.23-20.58a2.7,2.7,0,0,0-1.77.65,2.77,2.77,0,0,0-1,2.11,33.87,33.87,0,0,0,.79,7.82v0a33.34,33.34,0,0,0,2.68,7.39,2.77,2.77,0,0,0,1.78,1.48,2.74,2.74,0,0,0,2.26-.41L372,398.11c2.95-1.62,3.84-2.84,3.7-3.45s-1.48-1.31-4.8-1.44l-23.7-2A3.88,3.88,0,0,0,346.73,391.15Z"></path><path d="M371.55,429.21a4.2,4.2,0,0,1-.86-.1,33.28,33.28,0,0,1-14.49-7,3.78,3.78,0,0,1-1.42-2.82,3.7,3.7,0,0,1,1.23-2.89l16.32-17.22c2.27-2.63,4.06-3.67,5.29-3.09s1.55,2.64.95,6.11l-3.3,23.52a3.75,3.75,0,0,1-3.72,3.47ZM376.9,397c-.68,0-2,.75-3.83,2.91l-16.36,17.27a2.73,2.73,0,0,0,.11,4.2,32.69,32.69,0,0,0,6.61,4.26l0,0a32.49,32.49,0,0,0,7.45,2.51,2.69,2.69,0,0,0,2.26-.47,2.72,2.72,0,0,0,1.1-2l3.3-23.57c.57-3.32.17-4.78-.39-5.05A.65.65,0,0,0,376.9,397Z"></path><path d="M385.65,429.49a3.73,3.73,0,0,1-3.73-3.5l-3.29-23.5c-.64-3.41-.34-5.46.88-6.06s3,.44,5.37,3.07l16.33,17.24a3.71,3.71,0,0,1,1.21,2.86,3.76,3.76,0,0,1-1.43,2.82,34,34,0,0,1-6.81,4.38,33.49,33.49,0,0,1-7.68,2.59A3.53,3.53,0,0,1,385.65,429.49Zm-5.4-32.22a.67.67,0,0,0-.3.06c-.56.28-.94,1.73-.34,5l3.3,23.56A2.8,2.8,0,0,0,384,428a2.73,2.73,0,0,0,2.26.47,33.5,33.5,0,0,0,7.45-2.51l0,0a33.16,33.16,0,0,0,6.6-4.26,2.73,2.73,0,0,0,1.05-2.06,2.78,2.78,0,0,0-.9-2.12l-16.38-17.28C382.23,398,380.93,397.27,380.25,397.27Z"></path><path d="M407.69,412.37a3.76,3.76,0,0,1-2.14-.67l-20.42-12.08c-3.07-1.64-4.48-3.14-4.19-4.47s2.23-2.1,5.75-2.29l23.66-2a3.73,3.73,0,0,1,4.3,3.72,33,33,0,0,1-3.58,15.68,3.75,3.75,0,0,1-2.42,2A4,4,0,0,1,407.69,412.37Zm3.23-20.57a3.15,3.15,0,0,0-.44,0l-23.72,2c-3.37.18-4.7.9-4.84,1.51s.77,1.81,3.7,3.38l20.48,12.11a2.75,2.75,0,0,0,4.07-1.05,32.7,32.7,0,0,0,2.68-7.39v-.05a33.19,33.19,0,0,0,.79-7.82,2.74,2.74,0,0,0-1-2.1A2.71,2.71,0,0,0,410.92,391.8Z"></path><path d="M382.62,393.92a2.18,2.18,0,0,1-1.79-.69c-.85-1.06-.25-3.05,1.8-5.92l13.17-19.76a3.65,3.65,0,0,1,2.53-1.8,3.72,3.72,0,0,1,3.06.76,32.82,32.82,0,0,1,10,12.57,3.73,3.73,0,0,1-2.3,5.22l-22.17,8.45A11.76,11.76,0,0,1,382.62,393.92ZM399,366.68a2.29,2.29,0,0,0-.52.05,2.72,2.72,0,0,0-1.87,1.34l-13.2,19.81c-2,2.74-2.23,4.23-1.84,4.72s1.9.54,4.95-.78l22.24-8.46a2.75,2.75,0,0,0,1.72-3.84,32.93,32.93,0,0,0-4.11-6.7l0,0a32.46,32.46,0,0,0-5.62-5.49A2.72,2.72,0,0,0,399,366.68Z"></path></g><g style="opacity:0.2"><path d="M57.24,271.85a29,29,0,1,1,29-29A29,29,0,0,1,57.24,271.85Zm0-57a28,28,0,1,0,28,28A28,28,0,0,0,57.24,214.84Z"></path><path d="M57.57,241.58c-1.09,0-2-1.33-2.77-4l-5.5-17.2a3,3,0,0,1,2.11-4,25.18,25.18,0,0,1,12.28,0,3,3,0,0,1,2.11,4l-5.5,17.18c-.71,2.61-1.62,3.94-2.72,4Zm-.27-24.9a27.52,27.52,0,0,0-5.67.74,2,2,0,0,0-1.32,1,2,2,0,0,0-.08,1.64l5.52,17.26c.69,2.4,1.41,3.25,1.82,3.25h0c.41,0,1.12-.85,1.76-3.23l5.52-17.24a2,2,0,0,0-.07-1.68,2,2,0,0,0-1.31-1,24.13,24.13,0,0,0-5.9-.73H57.3Z"></path><path d="M54.79,242.52a9.32,9.32,0,0,1-3.35-.87l-16.88-6.43a2.94,2.94,0,0,1-1.84-1.63,3,3,0,0,1,.05-2.5,25.37,25.37,0,0,1,7.66-9.6,3,3,0,0,1,2.43-.6,2.91,2.91,0,0,1,2,1.46l10,15c1.6,2.18,2.07,3.73,1.39,4.59A1.77,1.77,0,0,1,54.79,242.52Zm-12.5-20.69a1.93,1.93,0,0,0-1.23.44,25.49,25.49,0,0,0-4.25,4.15l0,0a24.73,24.73,0,0,0-3.11,5.07,2,2,0,0,0,0,1.66,2,2,0,0,0,1.24,1.09l16.93,6.44c2.31,1,3.42.92,3.67.6s0-1.41-1.42-3.39L44,222.87a2,2,0,0,0-1.35-1A1.64,1.64,0,0,0,42.29,221.83Z"></path><path d="M35.29,256.49a2.84,2.84,0,0,1-.76-.1,2.92,2.92,0,0,1-1.92-1.59,25.24,25.24,0,0,1-2.74-12,3,3,0,0,1,1-2.27,3,3,0,0,1,2.4-.67l18,1.54c2.7.11,4.2.7,4.45,1.77s-.84,2.28-3.24,3.59L37,256A2.93,2.93,0,0,1,35.29,256.49Zm-2.45-15.65a2,2,0,0,0-2,2,24.61,24.61,0,0,0,.6,5.91v.05a25.12,25.12,0,0,0,2,5.59,2,2,0,0,0,2.89.77L52,245.92c2.19-1.21,2.85-2.1,2.76-2.5s-1.08-.91-3.54-1l-18-1.54Z"></path><path d="M51.71,269.79a3.23,3.23,0,0,1-.68-.08A25.16,25.16,0,0,1,40,264.38a3,3,0,0,1-1.13-2.23,2.93,2.93,0,0,1,1-2.29l12.41-13.1c1.76-2,3.17-2.84,4.16-2.37s1.25,2.08.79,4.77l-2.51,17.89a2.92,2.92,0,0,1-1.18,2.15A3,3,0,0,1,51.71,269.79Zm4.06-24.53c-.46,0-1.41.55-2.81,2.17L40.51,260.57a2,2,0,0,0,.07,3,25.35,25.35,0,0,0,5,3.23l.05,0a24.78,24.78,0,0,0,5.63,1.89,1.94,1.94,0,0,0,1.62-.33,2,2,0,0,0,.79-1.45L56.18,249c.43-2.47.14-3.54-.23-3.72A.48.48,0,0,0,55.77,245.26Z"></path><path d="M62.44,270a3,3,0,0,1-3-2.78L57,249.37c-.49-2.66-.25-4.26.74-4.74s2.4.31,4.22,2.36L74.36,260.1a2.93,2.93,0,0,1,1,2.27,3,3,0,0,1-1.13,2.23,25.13,25.13,0,0,1-11.07,5.33A3.07,3.07,0,0,1,62.44,270Zm-4.1-24.52a.44.44,0,0,0-.18,0c-.37.18-.64,1.25-.2,3.68l2.52,17.92A1.95,1.95,0,0,0,62.89,269a24.07,24.07,0,0,0,5.63-1.9l0,0a24.36,24.36,0,0,0,5-3.22,2,2,0,0,0,.11-3L61.21,247.67C59.77,246.05,58.81,245.49,58.34,245.49Z"></path><path d="M79.2,257a2.94,2.94,0,0,1-1.69-.53L62,247.27c-2.38-1.27-3.48-2.46-3.24-3.53s1.75-1.69,4.48-1.84l18-1.53a2.91,2.91,0,0,1,2.36.67,3,3,0,0,1,1,2.27,25.24,25.24,0,0,1-2.74,12,3,3,0,0,1-1.92,1.6A3.22,3.22,0,0,1,79.2,257Zm2.46-15.65a1.73,1.73,0,0,0-.32,0L63.29,242.9c-2.5.14-3.48.65-3.57,1.06s.58,1.27,2.75,2.44l15.58,9.21a2,2,0,0,0,2.93-.75,25.79,25.79,0,0,0,2-5.59v-.05a24.5,24.5,0,0,0,.6-5.91,2,2,0,0,0-2-2Z"></path><path d="M60.13,242.94a1.78,1.78,0,0,1-1.45-.56c-.69-.86-.23-2.42,1.36-4.65l10-15a3,3,0,0,1,4.42-.83,26.41,26.41,0,0,1,4.43,4.33,26.72,26.72,0,0,1,3.23,5.28,3,3,0,0,1-1.82,4.14l-16.86,6.42A9.13,9.13,0,0,1,60.13,242.94Zm12.49-20.71a2.31,2.31,0,0,0-.37,0,1.94,1.94,0,0,0-1.34,1l-10,15.07c-1.45,2-1.66,3.13-1.4,3.45s1.36.35,3.62-.63L80,234.68a2,2,0,0,0,1.27-1.1,1.91,1.91,0,0,0,0-1.65,24.82,24.82,0,0,0-3.1-5.07l0,0a24.67,24.67,0,0,0-4.26-4.16A2,2,0,0,0,72.62,222.23Z"></path></g><g style="opacity:0.2"><path d="M214.23,458.5a29,29,0,1,1,29-29A29,29,0,0,1,214.23,458.5Zm0-57a28,28,0,1,0,28,28A28,28,0,0,0,214.23,401.5Z"></path><path d="M214.56,428.23c-1.09,0-2-1.33-2.77-4l-5.51-17.2a3,3,0,0,1,2.12-4,25.18,25.18,0,0,1,12.28,0,3,3,0,0,1,2.1,4l-5.49,17.18c-.71,2.6-1.62,3.93-2.72,3.94Zm-.27-24.89a26.77,26.77,0,0,0-5.67.74,2,2,0,0,0-1.4,2.65L212.74,424c.69,2.4,1.41,3.25,1.82,3.25h0c.42,0,1.12-.85,1.77-3.23l5.52-17.23a2,2,0,0,0-.07-1.69,2,2,0,0,0-1.31-1,25.21,25.21,0,0,0-5.9-.74h-.28Z"></path><path d="M211.77,429.17a9.32,9.32,0,0,1-3.34-.87l-16.88-6.42a3,3,0,0,1-1.79-4.13,25.92,25.92,0,0,1,3.24-5.28,26.56,26.56,0,0,1,4.42-4.33,3,3,0,0,1,2.43-.6,3,3,0,0,1,2,1.46l10,15c1.59,2.17,2.07,3.72,1.39,4.58A1.78,1.78,0,0,1,211.77,429.17Zm-12.49-20.68a2,2,0,0,0-1.23.43,24.31,24.31,0,0,0-4.25,4.16l0,0a25.2,25.2,0,0,0-3.1,5.07,2,2,0,0,0,1.21,2.74l16.93,6.44c2.31,1,3.42.93,3.67.6s0-1.4-1.42-3.39l-10-15.06a2,2,0,0,0-1.35-1A2.43,2.43,0,0,0,199.28,408.49Z"></path><path d="M192.28,443.15a3.3,3.3,0,0,1-.76-.1,3,3,0,0,1-1.93-1.6,25.39,25.39,0,0,1-2.73-12,2.95,2.95,0,0,1,3.44-2.94l18,1.53c2.7.11,4.2.71,4.45,1.77s-.84,2.28-3.24,3.6l-15.54,9.19A2.87,2.87,0,0,1,192.28,443.15Zm-2.45-15.65a2,2,0,0,0-1.28.46,2,2,0,0,0-.69,1.51,24.65,24.65,0,0,0,.6,5.92v0a24.3,24.3,0,0,0,2,5.59,2,2,0,0,0,2.89.77l15.6-9.22c2.19-1.2,2.85-2.1,2.76-2.5s-1.08-.9-3.54-1l-18-1.54Z"></path><path d="M208.7,456.44a2.63,2.63,0,0,1-.68-.08A25.27,25.27,0,0,1,197,451a3,3,0,0,1-1.12-2.23,2.93,2.93,0,0,1,1-2.29l12.4-13.09c1.77-2,3.18-2.85,4.17-2.38s1.25,2.08.79,4.78l-2.51,17.88a3,3,0,0,1-3,2.74Zm4.06-24.53c-.46,0-1.41.55-2.82,2.18L197.5,447.23a2,2,0,0,0-.67,1.54,2,2,0,0,0,.74,1.48,24.93,24.93,0,0,0,5,3.22l.05,0a24.79,24.79,0,0,0,5.63,1.9,2,2,0,0,0,2.41-1.79l2.51-17.94c.42-2.46.14-3.54-.23-3.71A.34.34,0,0,0,212.76,431.91Z"></path><path d="M219.42,456.66a3,3,0,0,1-2.95-2.78L214,436c-.5-2.65-.25-4.25.74-4.73s2.4.31,4.22,2.36l12.42,13.11a2.91,2.91,0,0,1,1,2.26,3,3,0,0,1-1.13,2.23A26.06,26.06,0,0,1,226,454.6a25.79,25.79,0,0,1-5.86,2A3.08,3.08,0,0,1,219.42,456.66Zm-4.09-24.51a.5.5,0,0,0-.19,0c-.36.19-.64,1.26-.19,3.68l2.51,17.92a2,2,0,0,0,.79,1.49,2,2,0,0,0,1.62.34,25.28,25.28,0,0,0,5.64-1.9l0,0a25.53,25.53,0,0,0,5-3.22,2,2,0,0,0,.1-3l-12.46-13.15C216.75,432.7,215.8,432.15,215.33,432.15Z"></path><path d="M236.19,443.64a3,3,0,0,1-1.69-.54L219,433.92c-2.38-1.27-3.48-2.46-3.24-3.53s1.75-1.69,4.48-1.83l18-1.54a2.91,2.91,0,0,1,2.35.67,3,3,0,0,1,1.05,2.28,26.22,26.22,0,0,1-.63,6.15,25.38,25.38,0,0,1-2.11,5.82,3,3,0,0,1-1.92,1.6A2.84,2.84,0,0,1,236.19,443.64ZM238.65,428l-.32,0-18.05,1.55c-2.5.13-3.48.65-3.57,1.05s.58,1.28,2.75,2.44L235,442.26a2,2,0,0,0,2.93-.75,25.85,25.85,0,0,0,2-5.58v-.05a26,26,0,0,0,.6-5.92,2,2,0,0,0-2-2Z"></path><path d="M217.12,429.6a1.74,1.74,0,0,1-1.45-.57c-.69-.85-.23-2.41,1.36-4.64l10-15a2.92,2.92,0,0,1,2-1.43,3,3,0,0,1,2.43.61,24.8,24.8,0,0,1,4.42,4.33,25.3,25.3,0,0,1,3.24,5.27,3,3,0,0,1,.05,2.5,2.93,2.93,0,0,1-1.87,1.64l-16.86,6.42A9,9,0,0,1,217.12,429.6Zm12.49-20.72a1.69,1.69,0,0,0-.38,0,2,2,0,0,0-1.33,1L217.85,425c-1.45,2-1.66,3.12-1.4,3.44s1.36.35,3.62-.63L237,421.34a2,2,0,0,0,1.27-1.1,1.93,1.93,0,0,0,0-1.66,25.6,25.6,0,0,0-3.1-5.07l0,0a25.4,25.4,0,0,0-4.26-4.15A1.91,1.91,0,0,0,229.61,408.88Z"></path></g><g style="opacity:0.2"><path d="M666,262.2a29,29,0,1,1,29-29A29,29,0,0,1,666,262.2Zm0-57a28,28,0,1,0,28,28A28,28,0,0,0,666,205.2Z"></path><path d="M666.36,231.93c-1.1,0-2-1.33-2.78-4l-5.5-17.2a2.93,2.93,0,0,1,.13-2.45,3,3,0,0,1,2-1.52,25.22,25.22,0,0,1,12.29,0,3,3,0,0,1,2,1.52,2.94,2.94,0,0,1,.12,2.49L669.09,228c-.71,2.6-1.63,3.94-2.72,3.94ZM666.08,207a26.84,26.84,0,0,0-5.67.74,2,2,0,0,0-1.39,2.65l5.52,17.26c.68,2.4,1.41,3.24,1.82,3.24h0c.41,0,1.12-.85,1.77-3.22l5.51-17.24a2,2,0,0,0-.06-1.68,1.94,1.94,0,0,0-1.32-1,25.16,25.16,0,0,0-5.9-.74h-.28Z"></path><path d="M663.57,232.88a9.37,9.37,0,0,1-3.35-.88l-16.88-6.42a2.9,2.9,0,0,1-1.83-1.63,3,3,0,0,1,0-2.5,26.06,26.06,0,0,1,3.23-5.27,25.55,25.55,0,0,1,4.43-4.33,3,3,0,0,1,4.44.85l10,15c1.59,2.18,2.06,3.73,1.38,4.58A1.76,1.76,0,0,1,663.57,232.88Zm-12.49-20.69a2,2,0,0,0-1.24.43,25.25,25.25,0,0,0-4.25,4.16l0,0a25.2,25.2,0,0,0-3.1,5.07,1.94,1.94,0,0,0,1.2,2.74l16.93,6.44c2.31,1,3.42.93,3.68.61s0-1.41-1.42-3.4l-10-15.06a2,2,0,0,0-1.36-1A1.55,1.55,0,0,0,651.08,212.19Z"></path><path d="M644.07,246.85a2.89,2.89,0,0,1-.76-.1,3,3,0,0,1-1.92-1.6,25,25,0,0,1-2.73-12,2.94,2.94,0,0,1,1-2.28,3,3,0,0,1,2.4-.66l18,1.53c2.69.11,4.2.71,4.45,1.78s-.84,2.27-3.24,3.59l-15.55,9.19A2.87,2.87,0,0,1,644.07,246.85Zm-2.45-15.65a1.88,1.88,0,0,0-1.27.47,1.92,1.92,0,0,0-.69,1.5,25.75,25.75,0,0,0,.59,5.92v0a25.79,25.79,0,0,0,2,5.59,2,2,0,0,0,1.28,1.05,1.91,1.91,0,0,0,1.62-.29l15.59-9.22c2.19-1.2,2.86-2.09,2.76-2.5s-1.07-.9-3.54-1l-18-1.54A2.07,2.07,0,0,0,641.62,231.2Z"></path><path d="M660.5,260.14a3.08,3.08,0,0,1-.68-.07,25.49,25.49,0,0,1-5.86-2,25.18,25.18,0,0,1-5.21-3.34,3,3,0,0,1-1.13-2.24,3,3,0,0,1,1-2.29L661,237.12c1.77-2,3.17-2.85,4.16-2.38s1.26,2.08.79,4.78l-2.5,17.89a3,3,0,0,1-3,2.73Zm4.06-24.53c-.47,0-1.41.56-2.82,2.18l-12.45,13.14a2,2,0,0,0-.67,1.54,2,2,0,0,0,.75,1.48,24.93,24.93,0,0,0,5,3.22l0,0a25.28,25.28,0,0,0,5.64,1.9,2,2,0,0,0,1.62-.34,1.92,1.92,0,0,0,.78-1.44L665,239.36c.43-2.46.15-3.53-.23-3.71A.43.43,0,0,0,664.56,235.61Z"></path><path d="M671.22,260.36a3,3,0,0,1-3-2.78l-2.51-17.86c-.49-2.65-.24-4.25.74-4.73s2.41.31,4.23,2.36l12.42,13.11a2.91,2.91,0,0,1,.94,2.26A3,3,0,0,1,683,255a24.8,24.8,0,0,1-5.2,3.35,25.66,25.66,0,0,1-5.86,2A2.63,2.63,0,0,1,671.22,260.36Zm-4.1-24.51a.34.34,0,0,0-.18,0c-.37.18-.64,1.25-.19,3.67l2.51,17.93a2,2,0,0,0,2.41,1.82,24.79,24.79,0,0,0,5.63-1.9l.05,0a24.93,24.93,0,0,0,5-3.22,2,2,0,0,0,.74-1.48,2,2,0,0,0-.64-1.52L670,238C668.55,236.4,667.59,235.85,667.12,235.85Z"></path><path d="M688,247.34a2.91,2.91,0,0,1-1.7-.54l-15.53-9.18c-2.38-1.27-3.47-2.46-3.23-3.53s1.74-1.68,4.47-1.83l18-1.54a3,3,0,0,1,3.4,2.95,25.39,25.39,0,0,1-2.73,12,3,3,0,0,1-1.93,1.59A2.76,2.76,0,0,1,688,247.34Zm2.45-15.65-.32,0-18,1.54c-2.49.13-3.48.65-3.57,1.05s.58,1.28,2.75,2.44L686.83,246a2,2,0,0,0,1.66.31,1.94,1.94,0,0,0,1.27-1.05,24.48,24.48,0,0,0,2-5.59v0a24.65,24.65,0,0,0,.6-5.92,2,2,0,0,0-.69-1.5A1.92,1.92,0,0,0,690.44,231.69Z"></path><path d="M668.92,233.3a1.73,1.73,0,0,1-1.45-.57c-.69-.85-.24-2.41,1.36-4.64l10-15a2.9,2.9,0,0,1,2-1.42,3,3,0,0,1,2.43.6,25.69,25.69,0,0,1,4.42,4.33,26.17,26.17,0,0,1,3.24,5.27A3,3,0,0,1,689.1,226l-16.85,6.41A9,9,0,0,1,668.92,233.3Zm12.49-20.72a1.64,1.64,0,0,0-.38,0,1.94,1.94,0,0,0-1.33,1l-10.05,15.08c-1.45,2-1.66,3.13-1.41,3.45s1.37.34,3.63-.63L688.78,225a2,2,0,0,0,1.28-1.1,2,2,0,0,0,0-1.66,24.73,24.73,0,0,0-3.11-5.07l0,0a25.49,25.49,0,0,0-4.25-4.15A1.93,1.93,0,0,0,681.41,212.58Z"></path></g><g style="opacity:0.2"><path d="M641.8,130.19a29,29,0,1,1,29-29A29,29,0,0,1,641.8,130.19Zm0-57a28,28,0,1,0,28,28A28,28,0,0,0,641.8,73.19Z"></path><path d="M642.13,99.92c-1.09,0-2-1.33-2.78-4l-5.5-17.2a3,3,0,0,1,2.12-4,25.18,25.18,0,0,1,12.28,0,3,3,0,0,1,2.1,4L644.86,96c-.71,2.6-1.63,3.94-2.72,3.94ZM641.86,75a26.84,26.84,0,0,0-5.68.74,2,2,0,0,0-1.39,2.65l5.52,17.25c.69,2.41,1.38,3.23,1.82,3.25s1.12-.85,1.77-3.22l5.51-17.24a2,2,0,0,0-.06-1.68,1.94,1.94,0,0,0-1.32-1,25.12,25.12,0,0,0-5.9-.74h-.27Z"></path><path d="M639.34,100.86A9.27,9.27,0,0,1,636,100l-16.88-6.42a2.91,2.91,0,0,1-1.84-1.63,3,3,0,0,1,.05-2.5,25.92,25.92,0,0,1,3.24-5.28A25.38,25.38,0,0,1,625,79.84a3,3,0,0,1,4.44.85l10,15c1.59,2.18,2.06,3.72,1.39,4.58A1.79,1.79,0,0,1,639.34,100.86ZM626.85,80.18a2,2,0,0,0-1.23.43,25.17,25.17,0,0,0-4.26,4.16l0,0a25.2,25.2,0,0,0-3.1,5.07,2,2,0,0,0,1.2,2.74l16.94,6.44c2.3,1,3.41.93,3.67.6s0-1.4-1.42-3.39l-10-15.06a2,2,0,0,0-1.36-1A2.31,2.31,0,0,0,626.85,80.18Z"></path><path d="M619.85,114.84a2.78,2.78,0,0,1-.76-.1,3,3,0,0,1-1.93-1.6,25.39,25.39,0,0,1-2.73-12,2.95,2.95,0,0,1,3.44-2.94l18,1.53c2.7.11,4.2.71,4.45,1.77s-.84,2.28-3.24,3.6l-15.55,9.19A2.84,2.84,0,0,1,619.85,114.84Zm-2.46-15.65a1.9,1.9,0,0,0-1.27.47,2,2,0,0,0-.69,1.5,24.65,24.65,0,0,0,.6,5.92v0a24.73,24.73,0,0,0,2,5.58,2,2,0,0,0,1.28,1.06,1.94,1.94,0,0,0,1.62-.29l15.59-9.22c2.2-1.2,2.86-2.1,2.77-2.5s-1.08-.9-3.54-1l-18-1.54A2,2,0,0,0,617.39,99.19Z"></path><path d="M636.27,128.13a2.58,2.58,0,0,1-.68-.08,25.27,25.27,0,0,1-11.07-5.33,3,3,0,0,1-1.13-2.23,3,3,0,0,1,1-2.29l12.4-13.09c1.77-2,3.18-2.85,4.16-2.38s1.26,2.08.79,4.78l-2.5,17.88a2.91,2.91,0,0,1-1.18,2.15A2.94,2.94,0,0,1,636.27,128.13Zm4.06-24.53c-.47,0-1.41.56-2.82,2.18l-12.44,13.14a2,2,0,0,0,.07,3,24.93,24.93,0,0,0,5,3.22l0,0a25.28,25.28,0,0,0,5.64,1.9,2,2,0,0,0,1.62-.34,1.93,1.93,0,0,0,.78-1.45l2.52-17.94c.42-2.46.14-3.54-.24-3.71A.29.29,0,0,0,640.33,103.6Z"></path><path d="M647,128.35a3,3,0,0,1-3-2.78l-2.51-17.86c-.49-2.65-.24-4.25.74-4.73s2.41.31,4.23,2.36l12.42,13.11a2.95,2.95,0,0,1-.18,4.49,25.27,25.27,0,0,1-11.07,5.33A2.58,2.58,0,0,1,647,128.35Zm-4.1-24.51a.34.34,0,0,0-.18,0c-.37.18-.64,1.25-.19,3.67L645,125.47a2,2,0,0,0,2.41,1.83,25.28,25.28,0,0,0,5.64-1.9l0,0a24.93,24.93,0,0,0,5-3.22,2,2,0,0,0,.1-3L645.76,106C644.32,104.39,643.36,103.84,642.89,103.84Z"></path><path d="M663.76,115.33a3,3,0,0,1-1.7-.54l-15.52-9.18c-2.38-1.27-3.48-2.46-3.24-3.53s1.74-1.68,4.48-1.83l18-1.54a2.94,2.94,0,0,1,2.36.68,2.91,2.91,0,0,1,1,2.27,25,25,0,0,1-2.73,12,3,3,0,0,1-1.93,1.6A2.71,2.71,0,0,1,663.76,115.33Zm2.46-15.65-.32,0-18,1.55c-2.5.13-3.49.65-3.58,1s.58,1.28,2.76,2.44L662.61,114a2,2,0,0,0,2.93-.74,25.79,25.79,0,0,0,2-5.59v-.05a25.75,25.75,0,0,0,.59-5.92,2,2,0,0,0-1.95-2Z"></path><path d="M644.69,101.29a1.74,1.74,0,0,1-1.45-.57c-.69-.85-.23-2.41,1.36-4.64l10-15a2.88,2.88,0,0,1,2-1.42,3,3,0,0,1,2.43.6,25.69,25.69,0,0,1,4.42,4.33,25.3,25.3,0,0,1,3.24,5.27,3,3,0,0,1,0,2.5A3,3,0,0,1,664.88,94L648,100.39A9,9,0,0,1,644.69,101.29Zm12.49-20.72a1.64,1.64,0,0,0-.38,0,2,2,0,0,0-1.33,1L645.42,96.65c-1.45,2-1.66,3.12-1.4,3.45s1.36.34,3.62-.64L664.56,93a2,2,0,0,0,1.24-2.76,25.6,25.6,0,0,0-3.1-5.07l0,0A25.89,25.89,0,0,0,658.41,81,1.93,1.93,0,0,0,657.18,80.57Z"></path></g></g><g id="freepik--Texts--inject-1395"><path d="M349.36,272.18V248.54h2.25V259h7.44V248.54h2.22v23.64h-2.22v-11.5h-7.44v11.5Z" style="fill:#263238"></path><path d="M364.13,272.18l5-23.64h2.33l5,23.64h-2.19l-1.16-6.33h-5.64l-1.19,6.33Zm3.67-7.94h5l-2.54-12.75Z" style="fill:#263238"></path><path d="M379.33,272.18V248.54H385a6,6,0,0,1,3.34.79,4.31,4.31,0,0,1,1.74,2.19,9.35,9.35,0,0,1,.52,3.29,8.56,8.56,0,0,1-.54,3.08,4.63,4.63,0,0,1-1.78,2.26A5.6,5.6,0,0,1,385,261h-3.47v11.18Zm2.22-12.84h2.83a5.34,5.34,0,0,0,2.32-.43,2.61,2.61,0,0,0,1.3-1.41,7.27,7.27,0,0,0,.41-2.69,9,9,0,0,0-.35-2.81,2.28,2.28,0,0,0-1.22-1.4,5.84,5.84,0,0,0-2.43-.4h-2.86Z" style="fill:#263238"></path><path d="M393.42,272.18V248.54h5.67a6,6,0,0,1,3.34.79,4.35,4.35,0,0,1,1.73,2.19,9.34,9.34,0,0,1,.53,3.29,8.56,8.56,0,0,1-.54,3.08,4.63,4.63,0,0,1-1.78,2.26,5.62,5.62,0,0,1-3.25.85h-3.48v11.18Zm2.22-12.84h2.83a5.28,5.28,0,0,0,2.32-.43,2.54,2.54,0,0,0,1.3-1.41,7.27,7.27,0,0,0,.41-2.69,9,9,0,0,0-.35-2.81,2.27,2.27,0,0,0-1.21-1.4,5.89,5.89,0,0,0-2.44-.4h-2.86Z" style="fill:#263238"></path><path d="M411.28,272.18v-7.85l-5.34-15.79h2.16l4.26,13.13,4.09-13.13h2.19l-5.2,15.79v7.85Z" style="fill:#263238"></path><path d="M338.09,312.15V278h6.21v14.31h7V278h6.25v34.2h-6.25V296.69h-7v15.46Z" style="fill:#263238"></path><path d="M372,312.61a10.77,10.77,0,0,1-5.78-1.35,7.47,7.47,0,0,1-3.08-3.88,17.43,17.43,0,0,1-.93-6V288.59a16.86,16.86,0,0,1,.93-5.93,7.23,7.23,0,0,1,3.08-3.78,13.56,13.56,0,0,1,11.63,0,7.38,7.38,0,0,1,3.08,3.78,16.61,16.61,0,0,1,1,5.93v12.83a16.8,16.8,0,0,1-1,5.93,7.72,7.72,0,0,1-3.08,3.89A10.77,10.77,0,0,1,372,312.61Zm0-4.6a3.33,3.33,0,0,0,2.3-.68,3.37,3.37,0,0,0,1-1.85,13,13,0,0,0,.25-2.58V287.15a12.51,12.51,0,0,0-.25-2.57,3.2,3.2,0,0,0-1-1.79,3.38,3.38,0,0,0-2.3-.66,3.3,3.3,0,0,0-2.23.66,3.16,3.16,0,0,0-1,1.79,11.85,11.85,0,0,0-.25,2.57V302.9a13.83,13.83,0,0,0,.23,2.58,3.3,3.3,0,0,0,1,1.85A3.36,3.36,0,0,0,372,308Z" style="fill:#263238"></path><path d="M395.88,312.61a10.67,10.67,0,0,1-5.91-1.39,7.08,7.08,0,0,1-2.91-4,20.7,20.7,0,0,1-.8-6.16V278h6.08V301.8a20.56,20.56,0,0,0,.21,3,4.27,4.27,0,0,0,1,2.28,3.65,3.65,0,0,0,4.73,0,4.67,4.67,0,0,0,1-2.28,19.19,19.19,0,0,0,.23-3V278h6v23.14a20.67,20.67,0,0,1-.81,6.16,7.1,7.1,0,0,1-2.89,4A10.63,10.63,0,0,1,395.88,312.61Z" style="fill:#263238"></path><path d="M410.4,312.15V278h8.19a18,18,0,0,1,5.85.83,6.68,6.68,0,0,1,3.63,2.8,10.15,10.15,0,0,1,1.24,5.41,16.16,16.16,0,0,1-.38,3.71,7.12,7.12,0,0,1-1.28,2.81,5.89,5.89,0,0,1-2.51,1.79l4.77,16.85h-6.25l-4.14-15.67h-2.87v15.67Zm6.25-19.59h1.94a6.63,6.63,0,0,0,2.89-.53,3.05,3.05,0,0,0,1.54-1.69,8,8,0,0,0,.47-3,6.53,6.53,0,0,0-.95-3.87c-.63-.85-1.84-1.28-3.61-1.28h-2.28Z" style="fill:#263238"></path></g><g id="freepik--Clock--inject-1395"><circle cx="384" cy="131.1" r="99.21" style="fill:#fff"></circle><path d="M384,230.81a99.72,99.72,0,1,1,99.71-99.71A99.83,99.83,0,0,1,384,230.81Zm0-198.43a98.72,98.72,0,1,0,98.71,98.72A98.84,98.84,0,0,0,384,32.38Z" style="fill:#263238"></path><circle cx="384" cy="131.1" r="91.56" style="fill:#fff"></circle><path d="M384,223.16a92.06,92.06,0,1,1,92.06-92.06A92.17,92.17,0,0,1,384,223.16ZM384,40a91.06,91.06,0,1,0,91.06,91.06A91.16,91.16,0,0,0,384,40Z" style="fill:#263238"></path><path d="M382,129.13l-32.9-.08-7.58,2.28,7.57,2.19,32.9.09a2.25,2.25,0,0,0,2.25-2.23h0A2.24,2.24,0,0,0,382,129.13Z" style="fill:#DF7356"></path><path d="M382,134.11h0L349,134l-9.2-2.66,9.35-2.79,32.91.08a2.74,2.74,0,0,1,0,5.48ZM349.2,133l32.83.09h0a1.74,1.74,0,1,0,0-3.48l-32.83-.08-5.89,1.77Z" style="fill:#263238"></path><path d="M386.25,129.27l.24-32.91-2.25-7.59L382,96.33l-.23,32.91a2.23,2.23,0,0,0,2.22,2.25h0A2.23,2.23,0,0,0,386.25,129.27Z" style="fill:#DF7356"></path><path d="M384,132h0a2.72,2.72,0,0,1-1.94-.81,2.74,2.74,0,0,1-.78-2l.25-33L384.24,87,387,96.29v.08l-.24,32.9A2.73,2.73,0,0,1,384,132ZM382.51,96.4l-.23,32.84a1.67,1.67,0,0,0,.5,1.23A1.7,1.7,0,0,0,384,131h0a1.76,1.76,0,0,0,1.22-.5,1.71,1.71,0,0,0,.51-1.22L386,96.43l-1.74-5.89Z" style="fill:#263238"></path><path d="M384,238.47A107.37,107.37,0,1,1,491.37,131.1,107.49,107.49,0,0,1,384,238.47Zm0-202.93a95.56,95.56,0,1,0,95.55,95.56A95.67,95.67,0,0,0,384,35.54Z" style="fill:#263238"></path><circle cx="384" cy="131.1" r="3.85" style="fill:#fff"></circle><path d="M384,135.45a4.36,4.36,0,1,1,4.35-4.35A4.36,4.36,0,0,1,384,135.45Zm0-7.71a3.36,3.36,0,1,0,3.35,3.36A3.37,3.37,0,0,0,384,127.74Z" style="fill:#263238"></path><path d="M384.16,60.34a1,1,0,0,1-1-1V45.08a1,1,0,1,1,2,0V59.34A1,1,0,0,1,384.16,60.34Z" style="fill:#263238"></path><path d="M384.16,219.56a1,1,0,0,1-1-1V204.3a1,1,0,0,1,2,0v14.26A1,1,0,0,1,384.16,219.56Z" style="fill:#263238"></path><path d="M435.41,81.57a1,1,0,0,1-.71-.29,1,1,0,0,1,0-1.42l10.09-10.08a1,1,0,0,1,1.41,1.41L436.12,81.28A1,1,0,0,1,435.41,81.57Z" style="fill:#263238"></path><path d="M322.82,194.16a1,1,0,0,1-.7-.3,1,1,0,0,1,0-1.41l10.08-10.08a1,1,0,0,1,1.41,1.41l-10.08,10.08A1,1,0,0,1,322.82,194.16Z" style="fill:#263238"></path><path d="M332.91,81.57a1,1,0,0,1-.71-.29L322.12,71.19a1,1,0,0,1,1.41-1.41l10.08,10.08a1,1,0,0,1-.7,1.71Z" style="fill:#263238"></path><path d="M445.49,194.16a1,1,0,0,1-.7-.3L434.7,183.78a1,1,0,0,1,0-1.41,1,1,0,0,1,1.42,0l10.08,10.08a1,1,0,0,1-.71,1.71Z" style="fill:#263238"></path><path d="M470.9,132.82H456.64a1,1,0,0,1,0-2H470.9a1,1,0,0,1,0,2Z" style="fill:#263238"></path><path d="M311.68,132.82H297.42a1,1,0,0,1,0-2h14.26a1,1,0,0,1,0,2Z" style="fill:#263238"></path></g><g id="freepik--hand-4--inject-1395"><path d="M668.22,475.17l-6.41-42.39s-1.33-12.9-6.29-21.82-5-15.88-8.26-21.17-25.46-17.52-31.42-21.16-5.62-12.23-8.26-15.21-5.29-5.95-4.3-12.57-2.65-8.92-3.64-12.56,3-15.54,5.62-20.5,0-9.92,0-9.92-5.62-14.22-4.63-22.49,4.63-18.18,9.26-21.49,11.91-7.94,12.57-4,2.31,7.28-1.33,11.91-4,4-4.29,8.92,2,13.23,2,13.23,5,8.93,18.19,14.55,35-3.31,36-8.93,2-30.75,3-37,8.93-8.93,11.58.66,3.63,22.15,2,29.1-4.63,18.85-3,25.79,5.29,19.84,3,31.08a143.08,143.08,0,0,0-2.64,21.49s11.07,32.82,14,46.05,11.57,33.73,21.2,56.86" style="fill:#fff"></path><path d="M667.72,475.25l-6.41-42.4c0-.15-1.37-12.92-6.23-21.65a58.28,58.28,0,0,1-5-12.8,32.59,32.59,0,0,0-3.24-8.34c-2.65-4.25-18.32-13.42-26.74-18.34-1.88-1.1-3.45-2-4.51-2.66-3.88-2.38-5.21-6.79-6.27-10.33-.64-2.12-1.19-3.94-2.11-5-2.67-3-5.44-6.12-4.42-13,.65-4.3-.71-6.65-2-8.93a14.64,14.64,0,0,1-1.6-3.43c-1.07-3.92,3.09-16,5.66-20.87,2.49-4.67,0-9.4,0-9.45-.25-.63-5.68-14.48-4.68-22.78s4.55-18.33,9.46-21.84c6.2-4.42,10.15-6.19,12.07-5.4a2.12,2.12,0,0,1,1.28,1.76c.11.66.25,1.31.38,1.94.7,3.25,1.37,6.32-1.8,10.35-.69.88-1.26,1.57-1.74,2.14-2,2.4-2.2,2.65-2.46,6.52-.3,4.59,1.75,12.24,1.95,13,.42.71,5.52,9,17.92,14.28,8.58,3.65,21.69,1,29.67-3.32,3.3-1.79,5.42-3.75,5.69-5.23.5-2.84,1-10.86,1.5-18.62.48-7.52,1-15.3,1.47-18.41.53-3.35,3-5.9,5.83-6.06s5.52,2.32,6.72,6.67c2.75,10,3.6,22.57,2,29.34l-.2.83c-1.62,6.79-4.34,18.17-2.78,24.73.15.61.3,1.25.47,1.94,1.74,7.1,4.65,19,2.51,29.36a144.84,144.84,0,0,0-2.63,21.32c.64,1.89,11.16,33.24,14,46,2.91,12.95,11.15,32.71,20.68,55.59l.5,1.19-.93.39-.49-1.19c-9.56-22.93-17.8-42.72-20.74-55.77s-13.93-45.66-14-46l0-.08v-.09a143.38,143.38,0,0,1,2.65-21.58c2.09-10.16-.78-21.9-2.5-28.92-.17-.69-.33-1.34-.47-1.94-1.62-6.8,1-17.88,2.78-25.21l.19-.82c1.58-6.63.73-19-2-28.85-1.07-3.86-3.2-6.08-5.7-5.93s-4.45,2.33-4.9,5.22c-.49,3.06-1,10.81-1.46,18.31-.5,7.79-1,15.84-1.52,18.73-.32,1.84-2.53,3.95-6.2,5.94-8.39,4.55-21.57,7.17-30.53,3.36-13.23-5.62-18.22-14.4-18.43-14.77l0-.1c-.1-.35-2.34-8.41-2-13.4.28-4.18.6-4.57,2.68-7.08.47-.57,1-1.25,1.72-2.12,2.88-3.67,2.29-6.38,1.62-9.53-.14-.65-.28-1.31-.4-2a1.11,1.11,0,0,0-.67-1c-.87-.37-3.48-.16-11.11,5.29-4.63,3.3-8.12,13.36-9,21.14-1,8.05,4.54,22.1,4.6,22.24a11.69,11.69,0,0,1,0,10.34c-2.75,5.17-6.48,16.84-5.58,20.14a14.41,14.41,0,0,0,1.5,3.19c1.34,2.31,2.85,4.94,2.15,9.58-.95,6.38,1.54,9.19,4.18,12.16,1.07,1.2,1.64,3.12,2.31,5.35,1.07,3.56,2.29,7.59,5.84,9.76,1.06.65,2.62,1.56,4.49,2.66,9.09,5.31,24.3,14.21,27.09,18.67a33.81,33.81,0,0,1,3.35,8.59A57.25,57.25,0,0,0,656,410.71c4.95,8.92,6.33,21.89,6.34,22l6.41,42.37Z" style="fill:#263238"></path><path d="M682.52,361.92c-4.77-9.23-22.21-10-22.39-10l0-1c.74,0,18.21.78,23.24,10.52Z" style="fill:#263238"></path><path d="M640.64,350.77s4,1.66,6,8.6" style="fill:#fff"></path><path d="M646.11,359.51c-1.89-6.64-5.62-8.26-5.66-8.27l.38-.93c.18.07,4.22,1.83,6.25,8.92Z" style="fill:#263238"></path><path d="M645.93,387.15s-.66,3,11.25,2" style="fill:#fff"></path><path d="M652.77,389.84c-3.67,0-6-.54-6.93-1.61a1.35,1.35,0,0,1-.39-1.19l1,.18s0,.18.23.42c.52.51,2.6,1.65,10.47,1l.09,1C655.56,389.77,654.08,389.84,652.77,389.84Z" style="fill:#263238"></path><path d="M621,249.86c.31,1.1.78,4.24.31,5.5s-8,4.71-9.89,3,.16-5.18.16-5.18a37,37,0,0,1,5.29-3.39C619.44,248.46,621,249.86,621,249.86Z" style="fill:#DF7356"></path><path d="M613,259.31a2.89,2.89,0,0,1-2-.6c-2.15-2,0-5.65.07-5.8l.12-.14a37.2,37.2,0,0,1,5.38-3.45c2.89-1.44,4.61.11,4.69.18l.1.09,0,.14c.3,1.06.84,4.36.3,5.8-.42,1.13-4,2.87-6.65,3.5A9,9,0,0,1,613,259.31Zm-1.09-5.82c-.27.5-1.63,3.18-.21,4.48.44.41,1.52.45,3,.13,2.86-.64,5.9-2.37,6.12-2.92.39-1,0-3.76-.28-5a3.29,3.29,0,0,0-3.46.07A36.64,36.64,0,0,0,611.93,253.49Z" style="fill:#263238"></path><path d="M613.57,208.35a2,2,0,0,1-1.56-.75c-1.23-1.53-30.33-37.81-41.07-63.07-9.36-22-17.71-40.59-25-44.56a11.76,11.76,0,0,0-2.19-.93c6.45,10,12.43,21.55,11.77,26.62-.32,2.43-1.83,3.93-4,4-6.38.28-15.79-11.11-17.62-19.34-2-8.84,1-12.62,3-14.09l.17-.13c-1.37-2-2.7-3.8-4-5.41a7.63,7.63,0,0,1-9.27,1c-7.85-4.4-20.34-22.87-27.05-32.78l-1.13-1.68A2,2,0,1,1,498.87,55L500,56.71c6.06,9,18.67,27.6,25.7,31.54a3.62,3.62,0,0,0,4.76-.64c-.52-.6-1-1.13-1.46-1.58-4.6-4.6-8.11-11.11-5.54-14.11,1.12-1.3,3.44-2.15,8.13,1.28a11.64,11.64,0,0,1,3.79,14.08c1.67,2.11,3.55,4.66,5.47,7.46a12.52,12.52,0,0,1,6.95,1.71c7.79,4.22,14.86,18.36,26.82,46.51,10.52,24.75,40.21,61.77,40.51,62.14a2,2,0,0,1-.31,2.81A2,2,0,0,1,613.57,208.35ZM539.2,99.45c-2,1.5-2.52,5.24-1.46,10,1.42,6.38,7.1,13.19,11.51,15.55a3.74,3.74,0,0,0,2.13.65,2,2,0,0,0,.13-.53c.28-2.11-1.73-8.25-8.19-19.12C542,103.81,540.6,101.58,539.2,99.45ZM526.61,74.91c.22,1.42,1.64,4.71,5.22,8.29l.43.45a7.4,7.4,0,0,0-3-7.22A10.79,10.79,0,0,0,526.61,74.91Z" style="fill:#DF7356"></path><path d="M613.57,208.85a2.5,2.5,0,0,1-2-.93c-1.23-1.54-30.38-37.89-41.14-63.2-9.32-21.94-17.63-40.41-24.82-44.31l-.71-.36c3.63,5.77,11.82,19.58,11,25.68-.35,2.68-2,4.35-4.5,4.46-6.72.32-16.24-11.23-18.12-19.74-2-8.79.89-12.77,2.93-14.42-1.16-1.67-2.28-3.2-3.34-4.58a8.16,8.16,0,0,1-9.44.72c-8-4.45-20.49-23-27.22-32.93l-1.14-1.68a2.47,2.47,0,0,1-.38-1.87,2.44,2.44,0,0,1,1.05-1.6,2.53,2.53,0,0,1,1.87-.39,2.46,2.46,0,0,1,1.6,1.06l1.14,1.67c6,8.93,18.6,27.5,25.52,31.38a3.11,3.11,0,0,0,3.83-.23c-.4-.45-.78-.85-1.13-1.2-4.88-4.87-8.35-11.52-5.56-14.78,1.26-1.47,3.81-2.46,8.81,1.2A12.14,12.14,0,0,1,536,87.2c1.6,2,3.37,4.44,5.15,7A13.25,13.25,0,0,1,548,96c7.92,4.29,15,18.5,27,46.76,10.55,24.81,40.14,61.64,40.44,62a2.44,2.44,0,0,1,.53,1.84,2.48,2.48,0,0,1-.91,1.68A2.56,2.56,0,0,1,613.57,208.85Zm-71-110.68,1.3.39a12.46,12.46,0,0,1,2.28,1c7.47,4,15.86,22.69,25.26,44.8,10.7,25.19,39.77,61.43,41,63a1.53,1.53,0,0,0,2.11.23,1.51,1.51,0,0,0,.23-2.11c-.3-.37-30-37.32-40.58-62.25-11.92-28-18.93-42.12-26.59-46.27a12.2,12.2,0,0,0-6.67-1.65l-.29,0-.17-.24c-1.89-2.75-3.77-5.32-5.45-7.43l-.19-.23.12-.28A11.17,11.17,0,0,0,531.3,73.6c-2.42-1.76-5.68-3.43-7.46-1.35-2.29,2.67,1,8.92,5.51,13.43.45.45,1,1,1.49,1.6l.3.35-.32.33a4.14,4.14,0,0,1-5.37.72c-7.13-4-19.78-22.7-25.86-31.69l-1.14-1.67A1.5,1.5,0,0,0,496,57l1.13,1.67C503.79,68.56,516.24,87,524,91.3a7.12,7.12,0,0,0,8.68-.94l.4-.38.34.44c1.24,1.6,2.57,3.43,4,5.43l.28.41-.56.4c-1.85,1.4-4.67,5-2.77,13.58,1.77,8,10.72,19,16.89,19h.22c2-.09,3.26-1.4,3.55-3.59.65-5-5.61-16.85-11.69-26.29Zm8.66,28a5.08,5.08,0,0,1-2.2-.73c-4.52-2.41-10.32-9.37-11.77-15.88-1.11-5-.49-8.92,1.65-10.54l.42-.32.3.45c1.43,2.18,2.82,4.4,4.13,6.6,5.54,9.32,8.63,16.59,8.26,19.43,0,.16,0,.29-.08.39l.24.36-.64.2A1.23,1.23,0,0,1,551.22,126.2Zm-12.12-26c-1.48,1.58-1.81,4.93-.87,9.16,1.39,6.25,6.94,12.91,11.26,15.22a5,5,0,0,0,1.51.58s0-.06,0-.09c.26-1.93-1.72-8-8.12-18.79C541.69,104.27,540.41,102.23,539.1,100.21Zm-6.49-15.47L531.9,84c-.15-.15-.29-.3-.43-.43-3.78-3.78-5.14-7.17-5.35-8.58l-.12-.82.78.28A11.37,11.37,0,0,1,529.53,76a7.9,7.9,0,0,1,3.23,7.69Zm-5.24-8.93a19.46,19.46,0,0,0,4.47,6.69,6.88,6.88,0,0,0-2.9-5.67A17,17,0,0,0,527.37,75.81Z" style="fill:#263238"></path><rect x="588.89" y="88.16" width="5.4" height="142.09" transform="translate(-16.29 235.39) rotate(-22.21)" style="fill:#fff"></rect><path d="M615.66,226.65l-.18-.46-53.9-132,5.92-2.42.19.46,53.9,132ZM562.89,94.73l53.32,130.62,4.07-1.66L567,93.06Z" style="fill:#263238"></path><path d="M649.07,349.14a6.49,6.49,0,0,1-5.91-4.62L608,239.46c-11.38-34-21-62.68-21-62.8-1.15-3.45,19.2-11.26,30.12-14.9a197.76,197.76,0,0,1,22.44-6.22c9.92-2,10.41-.52,10.6,0l0,.18,56,167.7a7,7,0,0,1-.12,4.89,5.42,5.42,0,0,1-3.28,3.13L650.7,348.88A5.14,5.14,0,0,1,649.07,349.14ZM647.3,155.52a41.16,41.16,0,0,0-7.54,1,197.45,197.45,0,0,0-22.31,6.18c-20.11,6.72-29.89,12.45-29.49,13.64,0,0,8,23.89,21,62.8L644.11,344.2c1,2.89,3.78,4.57,6.27,3.73l52.14-17.41A4.41,4.41,0,0,0,705.2,328a5.94,5.94,0,0,0,.09-4.18L649.22,156v-.11h0S649,155.52,647.3,155.52Z" style="fill:#263238"></path><path d="M698.41,310.38l-35.7-105.79L599,201c11.81,35.3,36.25,107.31,43.21,128.13,1,2.86,3.75,4.5,6.25,3.66l47.18-15.75C698.11,316.24,699.36,313.24,698.41,310.38Z" style="fill:#DF7356"></path><path d="M647.1,333.54a5.9,5.9,0,0,1-5.39-4.22c-3-9-9.24-27.43-16.45-48.75-9.41-27.83-20.07-59.38-26.76-79.38l-.24-.7,64.81,3.62,35.81,106.12a6.36,6.36,0,0,1-.11,4.45,5,5,0,0,1-3,2.87L648.59,333.3A4.79,4.79,0,0,1,647.1,333.54Zm-47.42-132c6.7,20,17.23,51.17,26.53,78.68,7.2,21.32,13.43,39.73,16.45,48.76.86,2.58,3.38,4.08,5.61,3.34l47.19-15.75a4,4,0,0,0,2.38-2.3,5.28,5.28,0,0,0,.09-3.76L662.34,205.08Z" style="fill:#263238"></path><rect x="636.33" y="250.54" width="1" height="88.01" transform="matrix(0.95, -0.31, 0.31, 0.95, -60.17, 213.92)" style="fill:#263238"></rect><rect x="615.78" y="216.93" width="1" height="30.41" transform="translate(-41.68 204.36) rotate(-18.22)" style="fill:#263238"></rect><rect x="665.51" y="157.7" width="3" height="167.67" transform="translate(-42.08 220.7) rotate(-18.22)" style="fill:#fff"></rect><path d="M620.47,345.15c-.33,1.33,18.19-16.86,24.47-20.5s14.88-5.29,19.18-7.6,7.27,3,5.29,7.27-9.59,8.93-16.2,14.22-10.25,8.93-12.57,12.23,0,10.26-4.63,14.55" style="fill:#fff"></path><path d="M636.35,365.69l-.68-.73c2.6-2.42,2.9-5.8,3.17-8.79.19-2.17.37-4.22,1.39-5.68,2.47-3.52,6.25-7.21,12.67-12.34,1.77-1.42,3.6-2.78,5.38-4.11,4.77-3.54,9.27-6.89,10.68-9.93,1-2.2.66-4.92-.83-6.32a3.05,3.05,0,0,0-3.77-.3,53.36,53.36,0,0,1-7.5,2.87,63,63,0,0,0-11.67,4.72c-3.63,2.11-11.52,9.25-17.29,14.46-7.12,6.44-7.17,6.4-7.67,6.11l-.32-.19L620,345l1,.24-.49-.12.33-.32a.45.45,0,0,0-.42-.09c.51-.22,3.74-3.13,6.85-5.95,5.8-5.24,13.74-12.41,17.46-14.57a63.88,63.88,0,0,1,11.85-4.81,51.24,51.24,0,0,0,7.34-2.8,4,4,0,0,1,4.94.45,6.68,6.68,0,0,1,1,7.47c-1.51,3.27-6.12,6.69-11,10.32-1.77,1.31-3.6,2.68-5.36,4.08-6.33,5.07-10.06,8.7-12.47,12.13-.87,1.24-1,3.16-1.22,5.2C639.55,359.43,639.23,363,636.35,365.69Z" style="fill:#263238"></path><path d="M600,322s4.63-17.2,5.95-27.45,21.83-19.84,27.12-22.15,20.83-7.61,21.49-3-1,6.28-6.94,10.91-12.9,8.27-17.86,12.9-5,8.6-5,8.6" style="fill:#fff"></path><path d="M600.45,322.14l-1-.26c0-.17,4.63-17.28,5.94-27.38,1.34-10.38,21.32-19.88,27.41-22.55,3.39-1.49,16.89-6.57,21-4.28a2.27,2.27,0,0,1,1.2,1.69c.71,5-1.28,6.82-7.14,11.38-2.49,1.94-5.18,3.72-7.77,5.44a76.11,76.11,0,0,0-10,7.42c-4.71,4.4-4.8,8.2-4.8,8.24h-1c0-.17.06-4.24,5.12-9a78.34,78.34,0,0,1,10.18-7.53c2.58-1.71,5.24-3.47,7.71-5.39,6.11-4.76,7.37-6.18,6.76-10.45a1.26,1.26,0,0,0-.7-1c-3.14-1.75-14.83,2-20.1,4.33-4.25,1.85-25.52,11.64-26.82,21.76S600.5,322,600.45,322.14Z" style="fill:#263238"></path><path d="M640.1,270.74s-.47.63,0,2.51,1.1,2.82,2,2.82,7.85-1.1,9.11-1.88.62-6.12.62-6.12" style="fill:#DF7356"></path><path d="M642.14,276.57c-1.54,0-2.18-1.82-2.52-3.2-.5-2,0-2.8.08-2.93l.8.6-.4-.3.42.28s-.32.55.07,2.11c.61,2.44,1.32,2.44,1.55,2.44.87,0,7.71-1.1,8.84-1.8.59-.37.68-3.22.4-5.64l1-.12c.16,1.33.56,5.72-.86,6.6S643,276.57,642.14,276.57Z" style="fill:#263238"></path><path d="M605.26,334.9s5.62-19.84,7.94-23.8,20.5-12.9,26.45-14.55,21.16-3.31,25.46-4,8.27,1.65,5.29,6.94-17.52,9.59-23.81,11.91-6.61,3.3-10.58,5.62a41,41,0,0,0-7.27,5.62s-1,9.26-.33,13.56" style="fill:#fff"></path><path d="M627.91,336.3c-.66-4.31.29-13.3.33-13.69l0-.17.13-.13a41,41,0,0,1,7.37-5.69c1.15-.68,2-1.25,2.77-1.75a31,31,0,0,1,7.89-3.91c1-.35,2.08-.75,3.33-1.18,6.65-2.31,17.78-6.17,20.22-10.5,1.1-2,1.27-3.59.48-4.73s-2.94-1.84-5.26-1.48c-1.11.17-3,.41-5.17.7-6.31.81-15.85,2-20.23,3.26-5.85,1.62-24,10.58-26.16,14.32s-7.83,23.49-7.89,23.69l-1-.27c.23-.82,5.67-19.95,8-23.93,2.51-4.31,21.18-13.23,26.75-14.78,4.45-1.23,14-2.47,20.37-3.29,2.21-.28,4-.52,5.15-.69,2.75-.42,5.13.31,6.23,1.91.71,1,1.21,2.85-.43,5.78-2.62,4.66-13.54,8.45-20.76,11l-3.31,1.17a30.31,30.31,0,0,0-7.68,3.81c-.77.51-1.65,1.09-2.82,1.78a39.89,39.89,0,0,0-7,5.42c-.13,1.3-.91,9.39-.32,13.25Z" style="fill:#263238"></path><path d="M657.37,293.81a1.81,1.81,0,0,0-1.1,2.35,4,4,0,0,0,3.61,3.3c2,.31,9.26-1.1,9.26-1.1s-1.41-3.14-.63-5.18" style="fill:#DF7356"></path><path d="M660.62,300a4.93,4.93,0,0,1-.82-.05,4.51,4.51,0,0,1-4-3.67,2.3,2.3,0,0,1,1.44-2.95l.3,1c-.19.06-1.1.42-.77,1.75A3.52,3.52,0,0,0,660,299c1.46.23,6.17-.55,8.49-1-.39-1.05-1.05-3.3-.41-5l.94.36c-.7,1.82.6,4.76.61,4.79l.26.58-.62.12A64.65,64.65,0,0,1,660.62,300Z" style="fill:#263238"></path><path d="M669.61,321.12c-.28.91-8,4.55-10.67,2.82s-.79-3.61-.79-3.61,1.09-.92,3-2.23,2.45-1.79,4.9-1.79S670,319.72,669.61,321.12Z" style="fill:#DF7356"></path><path d="M660.89,324.9a4.07,4.07,0,0,1-2.22-.54A3.16,3.16,0,0,1,657,322.1a2.81,2.81,0,0,1,.78-2.12,31.93,31.93,0,0,1,3.12-2.29l.48-.33a6.66,6.66,0,0,1,4.69-1.55,3.75,3.75,0,0,1,3,1.69,4.86,4.86,0,0,1,1,3.76c-.28.92-3.33,2.21-4.48,2.63A15,15,0,0,1,660.89,324.9Zm-2.41-4.19A1.82,1.82,0,0,0,658,322a2.25,2.25,0,0,0,1.19,1.52c.71.46,2,.51,3.71.13,2.94-.65,5.88-2.23,6.22-2.71a4,4,0,0,0-.88-2.84,2.87,2.87,0,0,0-2.17-1.29,5.7,5.7,0,0,0-4.13,1.38l-.49.33a36.27,36.27,0,0,0-3,2.19Z" style="fill:#263238"></path></g><g id="freepik--hand-3--inject-1395"><path d="M564.81,256.11c4.82-7.85,2.91-25.72,2.91-25.72l20.4-39.17s2.19.25,5.41-2.27c1.82-1.43,7.77-17.21,7.77-17.21l-8.46-6.32-8-6.94s-14,9.21-15.19,11.22c-2.17,3.78-1.08,5.77-1.08,5.77l-34,28.19s-17.87,1.9-24.54,8.26S438,301.31,438,301.31s-6,3.82-4.3,12.82a18.79,18.79,0,0,0,6.77,11.13l9.66,7.8,4.38,3.53.26.21,4.37,3.53,9.66,7.81a18.81,18.81,0,0,0,12.31,4.27c9.14-.26,11.62-6.9,11.62-6.9S560,264,564.81,256.11Z" style="fill:#828282"></path><path d="M480.55,352.92a19.32,19.32,0,0,1-12.11-4.4l-28.33-22.87a19.25,19.25,0,0,1-6.95-11.43c-1.61-8.66,3.73-12.77,4.44-13.28,3.28-4.15,65.55-83.11,72.14-89.39s22.8-8.16,24.67-8.38L568,175.31c-.25-.81-.52-2.8,1.24-5.86,1.17-2,13.9-10.44,15.34-11.39l.32-.2,8.25,7.18,8.73,6.53-.14.35c-.61,1.63-6,16-7.92,17.42a9.57,9.57,0,0,1-5.42,2.38l-20.18,38.77c.18,1.87,1.66,18.27-3,25.89h0c-4.75,7.75-68.76,85.32-72.12,89.39-.35.8-3.25,6.89-12.05,7.14ZM584.83,159.11c-5.6,3.69-13.92,9.47-14.71,10.84-2,3.45-1.08,5.26-1.07,5.28l.19.36-.31.26-34.11,28.29h-.15c-.18,0-17.78,2-24.25,8.13S439,300.79,438.34,301.62l-.12.11c-.23.15-5.66,3.77-4.08,12.31a18.35,18.35,0,0,0,6.6,10.83l28.33,22.88a18.29,18.29,0,0,0,12,4.16c8.71-.25,11.15-6.51,11.17-6.57l.09-.15c.67-.81,67.34-81.59,72.09-89.34h0c4.66-7.62,2.85-25.23,2.84-25.41l0-.15.07-.13,20.56-39.48.34,0s2.06.18,5-2.16c1.23-1,5.09-10.35,7.48-16.64l-8.16-6.1Z" style="fill:#263238"></path><path d="M586.33,160.18l2.65,2-5.73-5-.21.14Z" style="fill:#263238"></path><path d="M563.41,254.52c4.79-7.82,2.86-25.65,2.86-25.65l20.28-39s2.19.25,5.4-2.26c1.81-1.42,7.72-17.15,7.72-17.15l-5-3.71c-.7,1.86-5.94,15.61-7.64,16.94-3.2,2.51-5.39,2.25-5.39,2.25l-20.29,39s1.94,17.83-2.85,25.66-71.89,89.1-71.89,89.1-2.47,6.61-11.6,6.86a18.8,18.8,0,0,1-12-4.11l4.63,3.74a18.83,18.83,0,0,0,12.3,4.3c9.13-.25,11.59-6.87,11.59-6.87S558.62,262.35,563.41,254.52Z" style="fill:#263238"></path><path d="M599.5,170.77l-2.5-2.16,6.1,4.53-.09.23Z" style="fill:#fff"></path><path d="M512.27,213.4c6.62-6.35,24.45-8.29,24.45-8.29l33.77-28.19s-.72-2.08,1-5.75c1-2.08,15.09-11.23,15.09-11.23l4.7,4.05c-1.67,1.09-14,9.17-14.9,11.1-1.77,3.67-1,5.76-1,5.76L541.6,209s-17.83,1.93-24.44,8.29-71.59,89.34-71.59,89.34-5.94,3.83-4.22,12.8a18.8,18.8,0,0,0,6.6,10.88l-4.65-3.72a18.88,18.88,0,0,1-6.83-11.09c-1.72-9,4.21-12.79,4.21-12.79S505.66,219.76,512.27,213.4Z" style="fill:#fff"></path><path d="M531.92,223.44c-1.44,1.8-4.74,1.56-7.36-.55s-3.56-5.27-2.12-7.07,4.75-1.55,7.36.55S533.37,221.64,531.92,223.44Z" style="fill:#fff"></path><path d="M599,173.93,583.81,161.7a5.16,5.16,0,0,1-.78-7.26h0a5.16,5.16,0,0,1,7.26-.77l15.14,12.23a5.16,5.16,0,0,1,.78,7.26h0A5.17,5.17,0,0,1,599,173.93Z" style="fill:#828282"></path><path d="M602.18,175.58a5.64,5.64,0,0,1-3.55-1.26l-15.14-12.23a5.66,5.66,0,1,1,7.12-8.81l15.14,12.23a5.66,5.66,0,0,1-3,10C602.59,175.56,602.38,175.58,602.18,175.58ZM587.05,153a4.66,4.66,0,0,0-2.93,8.28l15.14,12.23a4.66,4.66,0,1,0,5.86-7.26L590,154.06A4.62,4.62,0,0,0,587.05,153Z" style="fill:#263238"></path><path d="M591.31,160.66c-.93,1.16-3.06,1-4.76-.36s-2.31-3.41-1.37-4.57,3.06-1,4.76.36S592.25,159.5,591.31,160.66Z" style="fill:#fff"></path><path d="M597.07,165.84c-.68.85.41,2.87,2.45,4.51s4.24,2.27,4.92,1.42-.41-2.87-2.45-4.5S597.75,165,597.07,165.84Z" style="fill:#263238"></path><path d="M571.67,222.8l9.77-18.74-3.23-2.61a14.19,14.19,0,0,0-17.52-14.14l-3.22-2.61L541.2,198.19Z" style="fill:#DF7356"></path><path d="M571.84,223.57,540.41,198.2l17.06-14.14,3.35,2.7a14.69,14.69,0,0,1,17.9,14.46l3.35,2.7ZM542,198.19,571.51,222l9.29-17.84-3.09-2.5v-.25a13.69,13.69,0,0,0-16.9-13.65l-.24.06-3.1-2.5Z" style="fill:#263238"></path><path d="M439.88,298.85l54.8,44.26c7.7-9.29,49-59.7,62.79-77.19L502,221.16C487.84,238.28,447.34,289.37,439.88,298.85Z" style="fill:#DF7356"></path><path d="M494.75,343.8l-.38-.31-55.19-44.56.31-.39c8.18-10.41,48.06-60.68,62.17-77.7l.31-.38.39.31,55.81,45.07-.3.38c-13.72,17.45-54.72,67.45-62.81,77.2Zm-54.17-45,54,43.64c8.72-10.53,48.33-58.85,62.16-76.41l-54.65-44.14C487.91,239,449.34,287.64,440.58,298.77Z" style="fill:#263238"></path><circle cx="499.34" cy="281.23" r="29" transform="translate(-28.52 504.38) rotate(-52.3)" style="fill:#fff"></circle><path d="M499.29,310.74a29.57,29.57,0,1,1,3.18-.17A31.1,31.1,0,0,1,499.29,310.74Zm.11-58a29,29,0,0,0-3.08.16,28.51,28.51,0,1,0,25.2,46.25h0a28.51,28.51,0,0,0-22.12-46.41Z" style="fill:#263238"></path><path d="M492.87,483.08c-1.92-22.43-7.18-82.93-8.65-91.42-1.8-10.44-7.92-20.88-13-28.8s-11.52-14.77-14.76-26.29-9.37-31-9.37-31-6.12-14.77-3.6-22.33,11.16-6.12,11.16-6.12-2.16-8.64,1.81-13,13.32-3.6,13.32-3.6-2.52-6.48.36-11.88,10.8-6.12,12.24-4.68,16.21,15.48,16.21,15.48-1.8-18.72-1.8-23.4-2.88-5.77-2.88-5.77-6.85,3.25-6.85-5S499,217,502.23,217.37s11.52,6.48,14,9,8.29,19.45,10.09,34.21,10.8,29.89,10.8,29.89l9.72-11.16a5,5,0,0,1,4.32,3.24c1.45,3.24,2.17,14.05,2.17,20.53s-1.81,18-5.77,26.65-7.56,15.84-5.4,28.08,10.09,41.06,10.09,41.06l23.46,81.77" style="fill:#fff"></path><path d="M492.38,483.12c-2.12-24.69-7.21-83-8.65-91.37-1.74-10.11-7.49-20.14-12.89-28.63-1.26-2-2.59-3.86-4-5.85-4.12-5.83-8.38-11.86-10.83-20.57-3.2-11.38-9.29-30.76-9.35-30.95-.24-.57-6.15-15-3.6-22.64,2.19-6.56,8.81-6.67,11-6.53-.43-2.18-1.41-8.94,2.07-12.73s10.62-3.88,13-3.8c-.58-1.88-1.79-7.05.63-11.59,2.26-4.23,7.05-5.25,8.46-5.46,2.1-.31,3.86-.06,4.58.67,1.2,1.2,11.92,11.4,15.22,14.55-.41-4.39-1.67-18.15-1.67-22.12,0-3.65-1.81-4.91-2.39-5.22-.75.31-3.24,1.16-5.14,0-1.46-.92-2.2-2.78-2.2-5.54a7,7,0,0,1,2.36-5.41c3.52-3.16,10.26-3.35,13.33-3,3.51.39,11.89,6.7,14.34,9.15,2.64,2.64,8.39,19.51,10.22,34.5,1.57,12.85,8.73,26.15,10.39,29.1l9.42-10.81h.22a5.51,5.51,0,0,1,4.78,3.54c1.51,3.38,2.21,14.37,2.21,20.73a73.19,73.19,0,0,1-5.81,26.85l-.43.94c-3.75,8.16-7,15.21-4.94,26.86,2.14,12.08,10,40.72,10.08,41l23.46,81.77-1,.28L551.8,399c-.08-.29-7.95-29-10.09-41.1-2.11-11.95,1.19-19.14,5-27.45l.43-.93a72.14,72.14,0,0,0,5.72-26.44c0-6.53-.74-17.22-2.12-20.33a4.6,4.6,0,0,0-3.65-2.92l-10,11.49-.35-.59c-.09-.15-9.08-15.39-10.87-30.09-1.77-14.54-7.45-31.42-9.94-33.91-2.72-2.72-10.79-8.53-13.75-8.86s-9.28-.17-12.55,2.75a6,6,0,0,0-2,4.67c0,2.39.59,4,1.73,4.69,1.76,1.12,4.38-.09,4.4-.1l.19-.09.2.08c.13,0,3.21,1.26,3.21,6.23,0,4.6,1.78,23.17,1.8,23.36l.12,1.33-1-.92c-.6-.58-14.78-14.07-16.21-15.5-.41-.4-1.81-.66-3.72-.38-1.3.19-5.69,1.12-7.73,4.95-2.73,5.12-.36,11.4-.33,11.46l.28.74-.79-.06c-.09,0-9.17-.65-12.92,3.44s-1.7,12.42-1.68,12.51l.18.74-.75-.13c-.33-.05-8.25-1.27-10.6,5.79-2.44,7.3,3.52,21.83,3.58,22s6.18,19.62,9.39,31c2.4,8.54,6.61,14.5,10.68,20.27,1.35,1.91,2.75,3.88,4,5.89,5.45,8.56,11.26,18.71,13,29,1.44,8.38,6.53,66.75,8.65,91.45Z" style="fill:#263238"></path><rect x="474.36" y="258.73" width="1" height="15.58" transform="translate(-59.66 370.52) rotate(-40.31)" style="fill:#263238"></rect><rect x="457.98" y="276.13" width="1" height="15.01" transform="translate(-80.46 269.66) rotate(-30.26)" style="fill:#263238"></rect><path d="M495.78,289.7l-.79-.61A23.78,23.78,0,0,0,499.57,275l1,0A24.36,24.36,0,0,1,495.78,289.7Z" style="fill:#263238"></path><path d="M476.38,297.55l-.88-.47c2.07-3.8,1.75-11.55,1.74-11.63l1,0C478.26,285.74,478.58,293.52,476.38,297.55Z" style="fill:#263238"></path><path d="M459.1,309.42l-.89-.44a29.4,29.4,0,0,0,2.47-9.54l1,.07A29.91,29.91,0,0,1,459.1,309.42Z" style="fill:#263238"></path><path d="M545.63,297.06c-4-1.46-8.63-6-8.82-6.23l.7-.71c0,.05,4.65,4.62,8.46,6Z" style="fill:#263238"></path><path d="M507,227l-.79-.62a6.11,6.11,0,0,1,4.17-2.46c3.2-.35,6.09,2,6.21,2.06l-.63.77s-2.7-2.15-5.48-1.84A5.16,5.16,0,0,0,507,227Z" style="fill:#263238"></path></g><g id="freepik--hand-2--inject-1395"><path d="M287.36,280.34a7.68,7.68,0,0,1-2.21,1.51,10.79,10.79,0,0,0,.08,1.43l13.88,55.46a19.35,19.35,0,0,0,6.66,8,20.69,20.69,0,0,1-3.51-5.33l-13.88-55.45a15.65,15.65,0,0,1,1.31-7.89Z" style="opacity:0.18"></path><path d="M341.78,350.2a.49.49,0,0,1,.06.17c1.21,4.71-15.19,12.69-36.63,17.82-10.17,2.43-21.09,4.5-31.53,4a22.7,22.7,0,0,1-6.26-1.08c.91,2.17,5.68,3.08,9.2,3.24,10.45.47,21.37-1.6,31.54-4,21.44-5.13,37.84-13.11,36.63-17.82C344.53,351.52,343.48,350.74,341.78,350.2Z" style="opacity:0.18"></path><path d="M280.77,376.53c-1.69,0-3.37-.06-5-.19-1.48-.12-8.93-.87-10.21-4.55-.59-1.68.26-3.58,2.5-5.66,2.77-2.56,7.47-5.32,13.61-8a56.33,56.33,0,0,0,5.66-2.83c3.51-2,5.5-3.49,6.09-4.47,2.7-4.46,2.19-10.08,2.18-10.14l-13.87-55.38h0a15.46,15.46,0,0,0-5.52-6.66c-3.86-2.61-54.2-49.19-64.26-58.5l-2.13-2,2.67,1.15c6.62,2.84,29.95.26,55.46-6.14s47.34-15.15,51.8-20.79l1.8-2.28-.94,2.75c-6.2,18.19-26.58,77.83-28.69,81.84a15.26,15.26,0,0,0-1.71,8.53L304,338.67h0s2.21,5.19,6.68,7.84c.9.54,3,.87,6.47,1a50.25,50.25,0,0,0,6.91-.22h0c13.43-1.32,22,.27,23,4.24,1.49,6-15.32,15.17-38.28,20.84C300.37,374.48,290.6,376.53,280.77,376.53Zm-66.6-155.61c12.88,11.92,58.92,54.47,62.55,56.93a16.17,16.17,0,0,1,5.92,7.2l13.9,55.5a19.43,19.43,0,0,1-2.31,10.83c-.7,1.16-2.69,2.64-6.45,4.81a55.42,55.42,0,0,1-5.77,2.89c-6,2.6-10.63,5.3-13.32,7.78-1.93,1.79-2.68,3.34-2.24,4.6.78,2.24,5.26,3.56,9.35,3.88,11.37.88,23-1.49,32.79-3.92,23.91-5.91,38.72-14.92,37.55-19.63-.82-3.34-9.44-4.71-21.95-3.49h0a49.35,49.35,0,0,1-7.06.23c-3.66-.16-5.87-.53-6.93-1.16a19.4,19.4,0,0,1-7.12-8.38l-13.9-55.53a16.1,16.1,0,0,1,1.8-9.19c2-3.86,22.28-63.07,27.94-79.64-6.82,5.78-26.86,13.56-50.78,19.56S222.94,222.79,214.17,220.92Z" style="fill:#263238"></path><path d="M221.39,221.51c-5.76,0-10.88-.75-11.53-3.33-.9-3.6,7.54-8.18,14.78-11.38,10-4.43,23.68-8.91,38.48-12.62,27.41-6.88,56.71-10.25,58.28-4h0c.9,3.6-7.54,8.17-14.79,11.38-10,4.43-23.67,8.91-38.47,12.62s-29,6.21-39.88,7C226,221.39,223.66,221.51,221.39,221.51Zm88.55-33.67c-10,0-26.49,2.27-46.58,7.31-14.74,3.69-28.35,8.16-38.31,12.57-9.46,4.18-14.78,8-14.22,10.21s7,3.08,17.36,2.3c10.86-.82,25-3.31,39.71-7s28.34-8.16,38.31-12.57c9.46-4.18,14.78-8,14.22-10.21h0C320,188.74,316.26,187.84,309.94,187.84Z" style="fill:#263238"></path><path d="M278.67,274.88a6.14,6.14,0,0,0,4.17,1.06c3.14-.49,4.85-3.32,5.29-4.14l.12-.23c1.7-3.11,21-57.48,21-57.48L241,241.76c12.79,11.49,34.68,31.08,36.77,32.45A9.47,9.47,0,0,1,278.67,274.88Z" style="fill:#DF7356"></path><path d="M282.11,276.5a7.1,7.1,0,0,1-3.71-1.19l0,0c-.27-.22-.56-.44-.87-.65-2.12-1.38-24-21-36.84-32.48l-.59-.54,70.08-28.39-.37,1c-.79,2.22-19.37,54.44-21.07,57.55l-.11.22c-.48.91-2.3,3.88-5.67,4.41A5.39,5.39,0,0,1,282.11,276.5Zm-3.15-2a5.74,5.74,0,0,0,3.8,1c2.9-.45,4.51-3.09,4.93-3.88l.12-.24c1.53-2.8,17.93-48.78,20.63-56.36l-66.53,27C254.8,253.51,276,272.46,278,273.79A9.92,9.92,0,0,1,279,274.48Z" style="fill:#263238"></path><rect x="277.03" y="268.28" width="1" height="6.92" transform="translate(-110.78 280.57) rotate(-45.7)" style="fill:#263238"></rect><rect x="252.49" y="220.59" width="1" height="54.39" transform="translate(-101.04 255.76) rotate(-45.7)" style="fill:#263238"></rect><path d="M299.62,203.9l-15.33,52.57,5.26,1.53,16.55-56.75C304.1,202.12,301.94,203,299.62,203.9Z" style="fill:#ccc"></path><path d="M289.89,258.62l-6.22-1.81,15.54-53.29.23-.08c2.31-.89,4.48-1.78,6.46-2.65l1-.43Zm-5-2.49,4.3,1.25,16.11-55.25c-1.65.71-3.42,1.43-5.29,2.15Z" style="fill:#263238"></path><path d="M271.8,215.49,284.59,269a.46.46,0,0,0,.91-.14l-5.65-56.1Z" style="fill:#fff"></path><path d="M325.58,165.57a16.31,16.31,0,0,0-18.15,11.55l-3,10.43-4.77,16.35c2.32-.89,4.48-1.78,6.48-2.65l4-13.89,2.54-8.7A10.85,10.85,0,0,1,324.75,171l32.58,5,.83-5.41Z" style="fill:#ccc"></path><path d="M298.86,204.73,307,177a16.83,16.83,0,0,1,18.71-11.91l33.07,5.09-1,6.4-33.08-5.09a10.34,10.34,0,0,0-11.5,7.33l-6.66,22.81-.21.09c-2,.88-4.17,1.77-6.5,2.67Zm24.24-38.85a15.83,15.83,0,0,0-15.19,11.39l-7.52,25.8c1.87-.74,3.65-1.47,5.29-2.19l6.53-22.36a11.35,11.35,0,0,1,12.62-8l32.08,4.94.68-4.42-32.09-4.94A16.06,16.06,0,0,0,323.1,165.88Z" style="fill:#263238"></path><path d="M287.51,370.32H287c-7.24-.08-10.84-1-11.35-3-.45-1.71,1.54-3.77,6.28-6.5l1.83-1c4.72-2.65,11.86-6.66,13.14-10.36,1.41-4,0-9.41-1-13.33l-.15-.59c-1-3.88-13.51-53.87-13.63-54.38l0-.2,2-3.43,17.12,67.82a7.71,7.71,0,0,1-1.5,7.18,52.7,52.7,0,0,1-6.51,5.56c-2.9,2.24-6.18,4.79-6.55,5.86a.71.71,0,0,0,.16.79c1.09,1.25,5.87,2,15.71-.09a171.09,171.09,0,0,0,17.94-4.51l4.52-1.56-4.1,2.46C320.72,361.13,305.23,370.32,287.51,370.32Zm-4.4-89.2c.87,3.48,12.6,50.41,13.58,54.17l.15.59c1.06,4,2.52,9.58,1,13.91-1.41,4-8.74,8.17-13.6,10.9l-1.82,1c-5.46,3.15-6,4.73-5.82,5.38s1.84,2.13,10.4,2.22c11.88.13,22.74-4,28.68-6.74-3,.79-7.24,1.85-13,3.05-8.7,1.83-14.93,1.74-16.66-.23a1.74,1.74,0,0,1-.36-1.78c.44-1.26,2.89-3.23,6.88-6.32a53.64,53.64,0,0,0,6.37-5.41,6.81,6.81,0,0,0,1.3-6.25l-16.54-65.53Z" style="fill:#263238"></path><path d="M259.25,478.06c.92-13-.79-68,2.78-79.46,7.43-23.9,37.34-50,41.25-56.63s2.43-10.19,2.43-10.19a84.21,84.21,0,0,0,1.21-19.21c-.6-10.23,2.43-19.6,3.92-27.48a30.59,30.59,0,0,0-1.06-14.78s1.42-1.77,2.65-12.22c.93-7.9,5.37-15.87,7.06-23.57,1.13-5.12,3.76-14.25,3.59-17.89s-2.13.68-2.13.68-7.21,2.66-10.3,7.69S299.48,239.35,291,263.24s-20.53,38.53-26.14,43-10.34,2.32-10.92-9.93-1.14-27.53-5.37-38.6-11.08-14.58-15.71-17.46-4,6.33-3.26,11.8,3,14.5,3.94,20.58,2.1,12.77,1.92,19.55-3.27,23.23-6.58,30.68-9.24,22.47-9.78,65.66c-.31,24-20.31,81.13-26,95.16" style="fill:#fff"></path><path d="M193.56,483.9l-.92-.38c5.42-13.26,25.69-70.71,26-95,.57-45,7.05-59.62,9.82-65.85,3.32-7.47,6.38-24,6.54-30.5.16-6.25-.83-12.58-1.71-18.16l-.2-1.29c-.45-2.88-1.2-6.48-1.93-9.95-.79-3.81-1.61-7.75-2-10.64-.69-5-1-11.19,1.14-12.6.77-.51,1.74-.4,2.88.31l1.05.64c4.58,2.81,10.87,6.65,14.85,17.06,4.09,10.67,4.78,25.36,5.33,37.16l.07,1.6c.38,8,2.45,10.55,4.11,11.3,2,.92,4.38-.44,6-1.74,5.24-4.2,17.41-18.55,26-42.81,7-19.76,13.63-29.46,17.61-35.26.81-1.18,1.51-2.2,2.05-3.08,2.89-4.7,9.14-7.34,10.35-7.81.76-1.61,1.48-2.37,2.12-2.24s.84,1.1.88,1.92c.13,2.77-1.26,8.4-2.49,13.37-.42,1.71-.82,3.32-1.11,4.66a80.48,80.48,0,0,1-3.24,10.14c-1.62,4.4-3.29,8.94-3.81,13.38-1,8.66-2.17,11.44-2.6,12.22a31,31,0,0,1,1,14.81c-.36,1.88-.8,3.83-1.27,5.88-1.45,6.45-3.11,13.76-2.65,21.48a85.87,85.87,0,0,1-1.19,19.2c.25.78,1.07,4.39-2.52,10.48-1.12,1.91-4.19,5.21-8.42,9.79-10.28,11.09-27.47,29.65-32.78,46.74-2.35,7.56-2.39,34-2.42,55.32,0,10.55,0,19.65-.34,24l-1-.07c.31-4.33.32-13.42.34-23.95,0-21.35.07-47.91,2.46-55.62,5.38-17.3,22.67-36,33-47.12,4-4.36,7.23-7.8,8.3-9.62,3.71-6.29,2.41-9.71,2.4-9.74l-.06-.14,0-.15a84.29,84.29,0,0,0,1.2-19.08c-.46-7.87,1.21-15.25,2.68-21.76.46-2,.9-4,1.25-5.84a30.23,30.23,0,0,0-1-14.52l-.09-.26.17-.22c.05-.07,1.37-2,2.55-12,.53-4.55,2.23-9.15,3.86-13.6a78.51,78.51,0,0,0,3.2-10c.3-1.34.7-3,1.12-4.68,1.15-4.66,2.58-10.46,2.46-13.08a4.1,4.1,0,0,0-.11-.88,7.5,7.5,0,0,0-1.07,1.75l-.08.19-.2.07c-.07,0-7.08,2.66-10,7.48-.55.89-1.26,1.92-2.08,3.12-3.95,5.76-10.55,15.39-17.49,35-8.65,24.48-21,39-26.3,43.26-2.64,2.11-5.07,2.76-7,1.88-2.79-1.26-4.37-5.36-4.69-12.17l-.08-1.6c-.55-11.73-1.24-26.33-5.26-36.85-3.87-10.1-10-13.83-14.45-16.56l-1.05-.65c-.78-.49-1.39-.6-1.81-.32-1.32.85-1.58,5.2-.69,11.63.39,2.85,1.21,6.77,2,10.56.73,3.49,1.48,7.1,1.93,10l.21,1.3c.88,5.62,1.88,12,1.72,18.34-.16,6.68-3.2,23.18-6.63,30.88-2.74,6.17-9.17,20.62-9.73,65.46C219.33,413,199,470.6,193.56,483.9Z" style="fill:#263238"></path><path d="M309.78,270.31s-8.3,20.15-8.6,29.65" style="fill:#fff"></path><path d="M301.68,300l-1,0c.3-9.49,8.3-29,8.64-29.83l.93.38C310.16,270.7,302,290.67,301.68,300Z" style="fill:#263238"></path><path d="M229.64,252.08s2.6,13.28,4.22,13.1a7.33,7.33,0,0,0,5.54-7.84c-.35-5.26-4.52-13-6.5-17.06S227.34,239.72,229.64,252.08Z" style="fill:#DF7356"></path><path d="M233.85,265.68c-1.7,0-3.49-7.32-4.7-13.5h0c-1.62-8.74-.41-13.3,1.52-13.93.47-.16,1.66-.29,2.68,1.81.24.5.52,1.06.82,1.65,2.16,4.34,5.42,10.88,5.73,15.6a7.8,7.8,0,0,1-6,8.37ZM230.14,252c1.12,5.77,2.88,12.27,3.75,12.7a6.91,6.91,0,0,0,5-7.31c-.3-4.52-3.5-11-5.63-15.22l-.82-1.66c-.46-.95-1-1.45-1.47-1.31C230,239.52,228.48,243.08,230.14,252Z" style="fill:#263238"></path><path d="M320.75,217.11s-4,7.34-3.14,10.08,4.35,8.79,5.76-5.66c.4-4.16.38-6.58-.34-7S320.75,217.11,320.75,217.11Z" style="fill:#DF7356"></path><path d="M320.33,231.31c-1.9,0-3.14-3.8-3.2-4-.92-2.85,2.74-9.67,3.18-10.47.31-.62,1.41-2.61,2.32-2.87a.83.83,0,0,1,.66.08c.78.48,1.12,1.86.57,7.5-.82,8.47-2.32,9.61-3.38,9.72Zm2.5-16.31a8.09,8.09,0,0,0-1.64,2.33v0c-1.09,2-3.77,7.61-3.11,9.69.52,1.6,1.59,3.37,2.3,3.26.38,0,1.71-.8,2.49-8.81C323.36,216.47,323.05,215.27,322.83,215Z" style="fill:#263238"></path></g><g id="freepik--hand-1--inject-1395"><path d="M89.66,457.56l38.62-83s12-7.92,19.22-11.06,24.86-20.88,24.86-20.88l18.15-24s9.87-7,12.42-8.73,5.56-7.76,5.88-13.63-7-8.84-7-8.84,1.39-1.09,3.53-3.08a11.9,11.9,0,0,0,3.74-11.64c-1.12-6.14-8.8-8-8.8-8s4.92-1.78,5.89-5.47-.06-9.51-3.67-12.54-9.86,1.19-9.86,1.19,1.83-1.9,3.12-3.3,7.82-4.67,2.94-9.71-15.66-1.2-28.26,6.91-51,26.83-58.67,37.91S101.08,308.3,96.83,317s-12,18.15-12,18.15S36.4,410.58,33,416.34s-9.56,14.85-9.56,14.85" style="fill:#fff"></path><path d="M90.11,457.78l-.9-.43,38.67-83.17.12-.08c.12-.07,12.1-8,19.3-11.1s24.53-20.6,24.7-20.78l18.22-24.08s9.88-7,12.42-8.74,5.36-7.53,5.67-13.24c.3-5.46-6.62-8.32-6.69-8.35l-.81-.32.68-.54s1.4-1.09,3.5-3a11.46,11.46,0,0,0,3.59-11.19c-1.05-5.75-8.35-7.56-8.43-7.58l-1.62-.39,1.57-.56c.05,0,4.69-1.74,5.57-5.13.94-3.58-.13-9.2-3.5-12s-9.2,1.17-9.26,1.21L189,250.89l3.28-3.4s1.82-1.89,3.11-3.29a10.4,10.4,0,0,1,1.11-.94c1.33-1,3.35-2.62,3.48-4.58a4.68,4.68,0,0,0-1.64-3.5c-4.21-4.35-13.77-1.94-27.63,7-3.6,2.32-9.23,5.46-15.76,9.1-15.76,8.79-37.36,20.84-42.77,28.68-4.73,6.86-7.68,16.22-10.28,24.48a102.47,102.47,0,0,1-4.61,12.82c-4.23,8.69-12,18.16-12.11,18.26-.45.7-48.38,75.41-51.76,81.1s-9.51,14.78-9.58,14.87l-.82-.56c.06-.09,6.17-9.14,9.54-14.82s51.33-80.43,51.82-81.18c.11-.14,7.84-9.53,12-18.1a102.46,102.46,0,0,0,4.56-12.69c2.62-8.33,5.59-17.77,10.41-24.75,5.54-8,26.37-19.65,43.11-29,6.51-3.63,12.13-6.76,15.7-9.06,14.52-9.34,24.24-11.65,28.89-6.83a5.66,5.66,0,0,1,1.92,4.26c-.17,2.4-2.39,4.14-3.86,5.29a9.78,9.78,0,0,0-1,.84l-1,1.11c2.25-.93,5.44-1.65,7.73.28,3.72,3.12,4.87,9.08,3.83,13-.71,2.72-3.36,4.44-5,5.25,2.32.84,7,3.11,7.88,8a12.38,12.38,0,0,1-3.89,12.1c-1.31,1.21-2.32,2.08-2.93,2.59,1.93,1,6.85,3.91,6.57,9-.33,6.09-3.42,12.16-6.1,14-2.42,1.68-11.5,8.09-12.35,8.68l-18.1,24c-.77.77-17.81,17.89-25.06,21-6.74,2.92-17.77,10.11-19,10.94Z" style="fill:#263238"></path><path d="M80,162.22a16.4,16.4,0,0,1,18,25.14l41.27,47.41-5.09,2.5L93.76,191.55a16.78,16.78,0,0,1-4.6,2.17A16.41,16.41,0,0,1,80,162.22Z" style="fill:#bfbfbf"></path><path d="M134.06,237.89l-.25-.29L93.67,192.2a17.28,17.28,0,0,1-4.37,2,16.91,16.91,0,0,1-9.49-32.46h0a16.9,16.9,0,0,1,18.82,25.58l41.45,47.61Zm-40.22-47,40.46,45.76,4.17-2.05L97.36,187.39l.23-.32A15.89,15.89,0,1,0,89,193.24a16.28,16.28,0,0,0,4.46-2.11Z" style="fill:#263238"></path><circle cx="176.32" cy="203.29" r="28.92" transform="translate(-50 57.71) rotate(-16.31)" style="fill:#DF7356"></circle><path d="M176.32,232.72a29.45,29.45,0,1,1,10.78-2.06A29.29,29.29,0,0,1,176.32,232.72Zm0-57.85a28.42,28.42,0,1,0,26.48,18A28.23,28.23,0,0,0,176.29,174.87Z" style="fill:#263238"></path><path d="M166.71,178a25.37,25.37,0,0,0-5.42,3,2.49,2.49,0,0,0-.41,3.79L172.48,199c3.06,4,4.84,3.32,4.29-1.69l-1.2-18.3a2.5,2.5,0,0,0-2.89-2.5A25.43,25.43,0,0,0,166.71,178Z" style="fill:#fff"></path><path d="M175.66,202.06c-1,0-2.16-.94-3.58-2.8l-11.59-14.19a3,3,0,0,1-.78-2.36,3,3,0,0,1,1.3-2.17A25.85,25.85,0,0,1,172.6,176a3,3,0,0,1,3.47,3l1.2,18.26c.29,2.71-.07,4.31-1.1,4.72A1.25,1.25,0,0,1,175.66,202.06Zm-2.59-25.12a1.63,1.63,0,0,0-.31,0,25.39,25.39,0,0,0-5.85,1.5h0a25.87,25.87,0,0,0-5.3,2.89,2,2,0,0,0-.87,1.45,2,2,0,0,0,.54,1.58l11.62,14.24c1.55,2,2.55,2.55,2.94,2.39s.74-1.22.47-3.71L175.07,179a2,2,0,0,0-2-2.06Z" style="fill:#263238"></path><path d="M150.44,195.26a25.52,25.52,0,0,0-1.08,6.07,2.5,2.5,0,0,0,2.71,2.69l18.34-.21c5.05.11,5.61-1.71,1.35-4.41l-15-10.47a2.5,2.5,0,0,0-3.75.7A25.06,25.06,0,0,0,150.44,195.26Z" style="fill:#fff"></path><path d="M151.82,204.53a3,3,0,0,1-3-3.24,26.58,26.58,0,0,1,1.1-6.18,26.06,26.06,0,0,1,2.56-5.73,3,3,0,0,1,2.06-1.47,3,3,0,0,1,2.44.63l15,10.45c2.31,1.46,3.33,2.75,3,3.81s-1.89,1.57-4.66,1.51l-18.33.21Zm3.31-15.67a2.2,2.2,0,0,0-.36,0,2,2,0,0,0-1.38,1,24.92,24.92,0,0,0-2.47,5.5v.05a24.75,24.75,0,0,0-1,5.94,2,2,0,0,0,.59,1.58,2,2,0,0,0,1.57.57l18.38-.21c2.54.06,3.58-.4,3.7-.8s-.49-1.35-2.6-2.69l-15.08-10.48A2,2,0,0,0,155.13,188.86Z" style="fill:#263238"></path><path d="M153.77,218.73a25.32,25.32,0,0,0,4.08,4.63,2.49,2.49,0,0,0,3.79-.44l11.27-14.47c3.24-3.89,2.16-5.46-2.6-3.81l-17.58,5.24a2.5,2.5,0,0,0-1.79,3.37A25.77,25.77,0,0,0,153.77,218.73Z" style="fill:#fff"></path><path d="M159.56,224.54a3,3,0,0,1-2.05-.81,25.61,25.61,0,0,1-7-10.29,3,3,0,0,1,2.15-4.05l17.54-5.23c2.58-.89,4.22-.89,4.85,0s0,2.46-1.72,4.59L162,223.23a3,3,0,0,1-2.12,1.29Zm13.77-20a9.31,9.31,0,0,0-2.86.63l-17.59,5.24a2,2,0,0,0-1.38,1,2,2,0,0,0-.09,1.69,25.32,25.32,0,0,0,2.76,5.36l0,0a25.06,25.06,0,0,0,4,4.53,2,2,0,0,0,1.61.52,2,2,0,0,0,1.42-.88l11.3-14.5c1.62-1.95,1.92-3,1.68-3.39C174.09,204.6,173.81,204.49,173.33,204.49Z" style="fill:#263238"></path><path d="M174.21,230.76a25.22,25.22,0,0,0,6.16-.3,2.5,2.5,0,0,0,2-3.24l-4.29-17.83c-1-5-2.92-5.1-4.6-.34l-6.86,17a2.5,2.5,0,0,0,1.52,3.5A25.39,25.39,0,0,0,174.21,230.76Z" style="fill:#fff"></path><path d="M175.73,231.33a12.58,12.58,0,0,1-1.56-.07A26.33,26.33,0,0,1,168,230a3,3,0,0,1-1.82-4.2l6.85-17c.91-2.58,1.93-3.86,3-3.78s1.95,1.49,2.51,4.21l4.28,17.81a3,3,0,0,1-2.43,3.85A33,33,0,0,1,175.73,231.33Zm.26-25.25c-.43,0-1.2.81-2,3.13l-6.87,17A2,2,0,0,0,167,228a2,2,0,0,0,1.26,1.13,25.57,25.57,0,0,0,5.92,1.18h.05a26,26,0,0,0,6-.31,2,2,0,0,0,1.61-2.58l-4.29-17.88c-.52-2.48-1.19-3.4-1.61-3.42Z" style="fill:#263238"></path><path d="M196.35,222.28a25.54,25.54,0,0,0,3.61-5,2.5,2.5,0,0,0-1.28-3.6l-16.61-7.77c-4.51-2.29-5.8-.89-3.13,3.39l9,16a2.49,2.49,0,0,0,3.68,1A25.48,25.48,0,0,0,196.35,222.28Z" style="fill:#fff"></path><path d="M190.22,227.21a3,3,0,0,1-.79-.11,3,3,0,0,1-1.93-1.62l-9-15.94c-1.45-2.32-1.81-3.91-1.06-4.73s2.38-.6,4.86.66l16.59,7.76a2.93,2.93,0,0,1,1.73,1.78,3,3,0,0,1-.23,2.52,25.77,25.77,0,0,1-3.67,5.09,26,26,0,0,1-4.8,4A3,3,0,0,1,190.22,227.21Zm-11.49-21.89a.73.73,0,0,0-.55.16c-.29.31-.15,1.43,1.18,3.55l9,16a2,2,0,0,0,1.3,1.12,2,2,0,0,0,1.66-.29A25.26,25.26,0,0,0,196,222l0,0a25,25,0,0,0,3.52-4.9,2,2,0,0,0-1-2.88l-16.65-7.78A7.79,7.79,0,0,0,178.73,205.32Z" style="fill:#263238"></path><path d="M203.53,199.69a25.33,25.33,0,0,0-1.66-5.94,2.5,2.5,0,0,0-3.61-1.25l-16.43,8.15c-4.6,2.09-4.32,4,.69,4.56l18.11,2.9a2.5,2.5,0,0,0,3.07-2.26A25,25,0,0,0,203.53,199.69Z" style="fill:#fff"></path><path d="M201.22,208.68a3.36,3.36,0,0,1-.71-.08l-18.07-2.9c-2.72-.31-4.19-1-4.36-2.12s1-2.24,3.54-3.39L198,192.05a3,3,0,0,1,2.47-.24,3,3,0,0,1,1.82,1.76,26.19,26.19,0,0,1,1.7,6,26.68,26.68,0,0,1,.17,6.28,3,3,0,0,1-3,2.79Zm-1.68-16a1.94,1.94,0,0,0-1,.28l-16.47,8.16c-2.31,1.06-3.05,1.92-3,2.33s1,1,3.52,1.29l18.13,2.91a2,2,0,0,0,1.68-.33,2,2,0,0,0,.81-1.47,24.85,24.85,0,0,0-.16-6v0a25.72,25.72,0,0,0-1.64-5.81,2,2,0,0,0-1.22-1.17A1.8,1.8,0,0,0,199.54,192.65Z" style="fill:#263238"></path><path d="M190.34,180a25.83,25.83,0,0,0-5.68-2.4,2.49,2.49,0,0,0-3.22,2l-3.88,17.93c-1.23,4.91.42,5.86,4,2.3l13.57-12.34a2.51,2.51,0,0,0,.15-3.82A25.45,25.45,0,0,0,190.34,180Z" style="fill:#fff"></path><path d="M178.22,202.49a1.41,1.41,0,0,1-.71-.18c-1-.55-1.11-2.19-.44-4.88L181,179.52a2.91,2.91,0,0,1,1.35-2.08,3,3,0,0,1,2.51-.34,25.76,25.76,0,0,1,10.79,6.22,3,3,0,0,1-.18,4.58l-13.53,12.32C180.38,201.73,179.14,202.49,178.22,202.49ZM183.91,178a2,2,0,0,0-1.08.31,2,2,0,0,0-.9,1.41l-3.88,18c-.62,2.46-.41,3.57,0,3.78s1.42-.18,3.19-1.94l13.58-12.36a2,2,0,0,0,.15-3.08,25.2,25.2,0,0,0-4.82-3.63l0,0a25.28,25.28,0,0,0-5.56-2.34A2.08,2.08,0,0,0,183.91,178Z" style="fill:#263238"></path><path d="M160.59,338.34l-7-7a76,76,0,0,1-7.74-9.1c-1.16-1.61-2.39-3.2-3.69-4.88C136.45,310,129.38,300.9,123.56,283c-9.47-29-7.64-64.41-7.58-65.52,0-3.15,27.74-9.22,30.93-9.91,8.33-1.79,16.22-3.2,22.23-4,9.74-1.23,10-.2,10.08.35.15.33,18.49,42.7,19.58,60.86,1.91,31.86-8.57,55.26-8.68,55.49l-4.84,13.21ZM117,217.51v.05c0,.35-2,36,7.53,65.17,5.77,17.69,12.49,26.35,18.41,34,1.31,1.69,2.54,3.28,3.71,4.9a74.92,74.92,0,0,0,7.64,9l6.65,6.67,23.61-4.58L189.2,320c.12-.26,10.5-23.45,8.6-55.05-1.08-18-19.34-60.2-19.53-60.62h0c-1.16-.77-12.5.28-31.15,4.3S117.73,216.32,117,217.51Z" style="fill:#263238"></path><path d="M181.29,216.07c5.15,12.74,14.3,36.83,15,49.21,1.83,30.39-8.16,52.31-8.16,52.31l-5.36,15.57-19.92,4.28-8.57-9.62a69.78,69.78,0,0,1-7.28-8.56c-6-8.39-14.3-16.36-21-36.95-4.18-12.8-6-26.82-6.81-38.28Z" style="fill:#DF7356"></path><path d="M162.71,338l-8.77-9.84a71.29,71.29,0,0,1-7.31-8.6c-1.1-1.52-2.26-3-3.5-4.61-5.37-6.93-12.07-15.56-17.59-32.47-3.53-10.83-5.83-23.75-6.83-38.4l0-.35.32-.14,62.54-28.18.2.48c5.31,13.13,14.34,37,15.08,49.37,1.82,30.17-8.11,52.33-8.21,52.55l-5.43,15.79Zm-43-93.65c1,14.43,3.28,27.15,6.76,37.82,5.47,16.74,11.83,24.94,17.43,32.17,1.24,1.59,2.41,3.1,3.52,4.64a70.31,70.31,0,0,0,7.23,8.5l8.4,9.42,19.35-4.16,5.27-15.3c.12-.26,9.94-22.21,8.15-52.12-.73-12.08-9.51-35.41-14.82-48.57Z" style="fill:#263238"></path><path d="M165.84,236.77c2.76,11.51,3.88,21.11,2.52,21.44s-4.72-8.74-7.47-20.25-3.89-21.11-2.52-21.44S163.08,225.26,165.84,236.77Z" style="fill:#fff"></path><path d="M145.53,308.3a161.3,161.3,0,0,0,19.62,24.28" style="fill:#DF7356"></path><path d="M164.8,332.94a162.36,162.36,0,0,1-19.69-24.37L146,308a161,161,0,0,0,19.55,24.2Z" style="fill:#263238"></path><path d="M121.26,219.84s4,41.45,12.92,66.3a98.79,98.79,0,0,0,8.24,17.18" style="fill:#DF7356"></path><path d="M142,303.58a99.86,99.86,0,0,1-8.28-17.27c-8.79-24.63-12.9-66-12.94-66.42l1-.1c0,.41,4.15,41.67,12.89,66.18a98.3,98.3,0,0,0,8.2,17.1Z" style="fill:#263238"></path><path d="M153.8,397.26c5-2.22,12.3-7.5,14.91-12.83a36,36,0,0,0,2.15-23.63c-2.33-9.48-7.14-14.21-7.14-14.21l-4-9.06L173,335.69l12.43-3.22-.24,9.9s-2.64,6.2-1.18,15.86a36,36,0,0,0,11,21c4.45,3.93,13.2,6,18.68,6.17s6.75.55,6.75.55l.16,1.89-35.67,7.33-36.6,7-.57-1.81S148.8,399.48,153.8,397.26Z" style="fill:#fff"></path><path d="M148,402.72l-.8-2.55.26-.22s1.14-.93,6.15-3.15h0c5.27-2.34,12.19-7.54,14.66-12.59a35.12,35.12,0,0,0,2.11-23.29c-2.26-9.22-7-13.93-7-14l-.11-.16L159,337.13l13.94-1.93,13-3.38-.3,10.74c0,.06-2.57,6.21-1.14,15.59a35.16,35.16,0,0,0,10.83,20.72c4.21,3.73,12.6,5.9,18.36,6.05,5.48.15,6.83.55,6.89.57l.32.1.23,2.67L185,395.68Zm.37-2.18.32,1,36.17-6.87,35.23-7.24-.1-1.08a43.88,43.88,0,0,0-6.3-.46c-5.93-.16-14.61-2.42-19-6.3a36.18,36.18,0,0,1-11.16-21.32c-1.39-9.17.84-15.2,1.18-16l.22-9.14-11.79,3.06-12.69,1.76,3.69,8.36c.63.65,5,5.38,7.21,14.38a36.27,36.27,0,0,1-2.19,24c-2.57,5.26-9.73,10.65-15.15,13.06h0A44.89,44.89,0,0,0,148.36,400.54Z" style="fill:#263238"></path><rect x="157.89" y="335.05" width="31.08" height="5.4" rx="2.67" transform="translate(412.67 632.57) rotate(168.12)" style="fill:#828282"></rect><path d="M160.84,343.6a3.2,3.2,0,0,1-.66-6.33l25.19-5.3a3.2,3.2,0,0,1,1.32,6.26l-25.2,5.3A2.88,2.88,0,0,1,160.84,343.6ZM186,332.9a2.12,2.12,0,0,0-.44.05l-25.2,5.3a2.2,2.2,0,0,0,.91,4.3l25.19-5.3a2.17,2.17,0,0,0,1.68-2.56A2.21,2.21,0,0,0,186,332.9Z" style="fill:#263238"></path><rect x="161.65" y="341.59" width="26.61" height="5.4" rx="2.67" transform="translate(417.03 645.19) rotate(168.12)" style="fill:#828282"></rect><path d="M164.55,349.67a3.21,3.21,0,0,1-2.66-4.95,3.12,3.12,0,0,1,2-1.37L184.71,339a3.17,3.17,0,0,1,3.75,2.45,3.23,3.23,0,0,1-.44,2.44,3.15,3.15,0,0,1-2,1.37l-20.82,4.38A3.57,3.57,0,0,1,164.55,349.67Zm20.81-9.77a1.73,1.73,0,0,0-.45.05l-20.82,4.38a2.11,2.11,0,0,0-1.36.93,2.14,2.14,0,0,0-.31,1.63,2.18,2.18,0,0,0,2.58,1.74l20.82-4.38a2.18,2.18,0,0,0,1.67-2.57A2.19,2.19,0,0,0,185.36,339.9Z" style="fill:#263238"></path><path d="M123.68,284.33c-2.28-5.45-2.35-16-2.31-17s2.08-2.75,5.28-8.11,3.47-13.9,1.47-18.64c-3-7-5.3-8-6.82-6.21s-4.58,6.44-9.16,12.89-6.5,6.23-9.59,14.28-.77,10.09-6.41,35.39c-2.16,9.69-5.18,28-5.18,28l.52,5.29" style="fill:#fff"></path><path d="M91,330.21l-.54-5.36,0-.06c0-.19,3-18.41,5.18-28a199.4,199.4,0,0,0,4.25-25c.45-4.13.72-6.62,2.18-10.43a25.89,25.89,0,0,1,5.74-9.54,53.36,53.36,0,0,0,3.92-4.85c1.75-2.47,3.27-4.66,4.58-6.54,2.12-3,3.65-5.25,4.6-6.38a2.26,2.26,0,0,1,2.15-.94c1.74.26,3.55,2.64,5.51,7.27s1.85,13.48-1.5,19.1a62.65,62.65,0,0,1-3.92,5.8,7,7,0,0,0-1.3,2.07c0,1.36.11,11.63,2.28,16.83l-.92.39c-2.46-5.9-2.36-17.15-2.35-17.26,0-.66.54-1.36,1.49-2.63a62.82,62.82,0,0,0,3.86-5.71c3.19-5.36,3.32-13.74,1.43-18.2-2.34-5.54-4-6.56-4.73-6.68a1.33,1.33,0,0,0-1.23.6c-.92,1.1-2.44,3.28-4.55,6.31-1.31,1.88-2.84,4.08-4.59,6.54a53.47,53.47,0,0,1-4,4.95,24.67,24.67,0,0,0-5.55,9.23,34.76,34.76,0,0,0-2.12,10.18A204.64,204.64,0,0,1,96.63,297c-2.07,9.28-5,26.67-5.17,27.88l.52,5.23Z" style="fill:#263238"></path><path d="M138.52,312.5s4.79,18.4-8.94,28" style="fill:#fff"></path><path d="M129.87,340.94l-.57-.82c13.29-9.33,8.79-27.31,8.74-27.49l1-.25C139.06,312.56,143.72,331.22,129.87,340.94Z" style="fill:#263238"></path><path d="M202.64,306.46s-5.12-2.35-7-4.75" style="fill:#fff"></path><path d="M202.43,306.91c-.21-.1-5.25-2.42-7.18-4.89l.78-.62c1.79,2.28,6.77,4.58,6.82,4.6Z" style="fill:#263238"></path><line x1="201.8" y1="287.35" x2="197.84" y2="286" style="fill:#fff"></line><rect x="199.32" y="284.58" width="1" height="4.19" transform="translate(-136.02 383.22) rotate(-71.16)" style="fill:#263238"></rect><path d="M194.35,307.4a6.6,6.6,0,0,0,4.46,3.13" style="fill:#fff"></path><path d="M198.72,311a7,7,0,0,1-4.81-3.39l.88-.46A6.2,6.2,0,0,0,198.9,310Z" style="fill:#263238"></path><path d="M121.3,234.33s4.11,4.45,3.08,8.39-5.32,9.21-6.72,8.16a5.59,5.59,0,0,1-2.67-5.41" style="fill:#fff"></path><path d="M118.09,251.52a1.19,1.19,0,0,1-.73-.24,6.1,6.1,0,0,1-2.87-5.84l1,.07a5.12,5.12,0,0,0,2.48,5c.09.07.29,0,.39,0,1.61-.57,4.7-4.63,5.55-7.87.95-3.64-2.92-7.89-3-7.93l.73-.68c.18.19,4.29,4.7,3.2,8.86-.88,3.36-4.12,7.84-6.19,8.56A1.73,1.73,0,0,1,118.09,251.52Z" style="fill:#263238"></path></g></svg>
